<svg width="211" height="249" viewBox="0 0 211 249" fill="none" xmlns="http://www.w3.org/2000/svg">
<path d="M100.438 247.767C100.438 247.767 90.8696 221.641 93.4006 201.923C95.9316 182.205 93.4006 192.989 93.4006 186.026C93.4006 179.001 87.0422 159.283 92.7833 147.206C92.7833 147.206 75.5601 156.757 62.1642 154.231C48.7684 151.704 32.8415 152.32 32.8415 152.32L23.8904 149.794L37.2862 140.859C37.2862 140.859 44.3237 125.578 41.7309 121.758C39.1999 117.937 51.2994 112.207 60.8679 114.733C70.4363 117.26 78.0911 123.668 87.0422 116.643C95.9934 109.619 114.451 112.823 114.451 112.823C114.451 112.823 139.329 138.271 163.59 107.093C163.59 107.093 179.825 116.951 192.913 128.721C192.913 128.721 206.308 136.361 206.926 152.937C207.543 169.512 207.543 165.692 207.543 165.692C207.543 165.692 212.667 182.883 206.926 197.548C206.926 197.548 206.926 227.495 200.567 243.392" stroke="white" stroke-miterlimit="10" stroke-linecap="round" stroke-linejoin="round"/>
<path d="M105.253 50.8967C100.5 62.4194 94.0799 83.8626 103.154 100.315C103.71 101.362 104.389 102.41 105.13 103.396C105.809 104.382 106.611 105.367 107.476 106.353C108.217 107.216 109.081 108.017 109.945 108.818C110.624 109.434 111.303 109.989 112.044 110.605C112.846 111.221 113.649 111.837 114.513 112.392C115.377 112.946 116.303 113.501 117.229 114.056C118.094 114.549 119.02 115.042 120.007 115.534C121.118 116.089 122.23 116.582 123.464 117.075C125.193 117.753 127.045 118.431 129.02 118.985C129.391 119.108 129.699 119.17 130.07 119.293C133.218 120.156 136.675 120.895 140.441 121.45C140.441 121.45 142.725 121.203 146.12 120.156C148.281 119.478 150.935 118.492 153.713 117.075C155.009 116.397 156.367 115.596 157.726 114.672C158.898 113.871 160.01 113.07 161.121 112.084C162.047 111.283 163.035 110.42 163.899 109.434C164.331 109.003 164.763 108.51 165.133 108.017C167.788 104.874 170.134 100.993 171.677 96.3095C171.677 96.3095 193.036 90.579 181.863 76.8997C181.863 76.8997 181.924 76.8997 181.986 76.7765" stroke="white" stroke-miterlimit="10" stroke-linejoin="round"/>
<path d="M182.357 77.146C182.357 77.146 193.653 47.9389 188.468 32.5343C176.986 -1.84877 158.837 9.30417 158.837 9.30417C158.837 9.30417 150.256 -9.79754 139.391 10.9062C137.23 15.0347 133.341 6.46972 125.687 9.98197C118.032 13.4942 119.945 20.149 115.192 21.1349C110.439 22.0592 103.093 17.3146 113.587 7.76371C113.587 7.76371 90.6227 16.6984 101.179 34.8142C101.179 34.8142 91.9191 46.5833 104.019 52.0057L107.846 48.8016C107.846 48.8016 115.192 47.5076 121.859 37.3405C128.526 27.1735 137.169 40.175 137.169 40.175C137.169 40.175 141.613 41.0993 143.218 38.2648C144.823 35.4304 154.083 30.9322 155.627 41.469C155.627 41.469 175.381 26.4957 169.948 54.224C169.146 58.3524 164.454 71.1691 164.454 71.1691L166.491 70.861C171.615 70.0599 176.862 71.7852 180.505 75.4207L182.357 77.146Z" stroke="white" stroke-miterlimit="10" stroke-linejoin="round"/>
<path d="M143.836 60.694L145.502 57.2434C145.502 57.2434 154.021 57.4283 158.528 64.6992C158.466 64.6992 150.256 58.8455 143.836 60.694Z" stroke="white" stroke-miterlimit="10" stroke-linecap="round" stroke-linejoin="round"/>
<path d="M109.698 54.8401C109.698 54.8401 120.563 51.636 125.008 57.3665L126.613 53.8542C126.613 53.8542 116.365 49.4177 109.698 54.8401Z" stroke="white" stroke-miterlimit="10" stroke-linecap="round" stroke-linejoin="round"/>
<path d="M133.28 61.4949L121.798 78.6864L126.613 85.4028L126.983 85.6493L121.921 78.6864L133.28 61.4949Z" stroke="white" stroke-miterlimit="10" stroke-linejoin="round"/>
<path d="M113.155 68.8891C113.155 68.8891 113.587 59.8928 116.426 60.2626C119.328 60.6939 120.933 59.0302 120.563 63.9597C120.13 68.8891 118.464 71.3539 113.155 68.8891Z" stroke="white" stroke-miterlimit="10" stroke-linecap="round" stroke-linejoin="round"/>
<path d="M142.848 67.5952C142.848 67.5952 142.848 72.0318 151.12 71.7237L155.565 71.4156L142.848 67.5952Z" stroke="white" stroke-miterlimit="10" stroke-linecap="round" stroke-linejoin="round"/>
<path d="M116.982 94.5842C116.982 94.5842 125.378 101.362 135.934 96.8024C136.058 96.7408 136.243 96.6792 136.366 96.6176L137.045 94.0296L138.403 97.4186C138.403 97.4186 128.465 105.306 116.736 97.1105L115.316 96.3711L115.501 92.7972C115.501 92.7356 117.229 92.1194 116.982 94.5842Z" stroke="white" stroke-miterlimit="10" stroke-linecap="round" stroke-linejoin="round"/>
<path d="M164.392 78.8714C154.515 89.0384 153.713 103.087 143.959 90.0243C139.329 83.8009 130.934 85.0949 127.847 87.3131C126.489 88.299 124.02 87.005 122.6 86.204C119.884 84.6635 115.624 82.7534 113.34 84.6019C109.821 87.4364 104.759 87.1283 102.846 85.2181C100.932 83.3079 100.376 91.7496 100.376 91.7496C100.376 91.7496 104.698 105.614 109.821 110.358C112.538 112.823 114.636 114.98 117.723 116.459C121.983 118.492 127.353 118.677 131.428 119.478C138.527 120.895 155.935 122.559 163.96 109.003C171.985 95.4467 172.665 86.204 172.665 86.204C172.665 86.204 174.27 68.7044 164.392 78.8714ZM143.959 98.8974C143.959 98.8974 133.773 110.79 129.946 106.23C128.279 104.197 125.316 102.841 122.97 102.348C121.242 101.978 119.39 102.225 117.723 102.903C116.797 103.272 115.439 103.272 113.71 101.855C110.192 99.0206 107.969 91.0102 107.969 91.0102C107.969 91.0102 108.895 94.8306 113.71 91.0102C117.044 88.3606 121.612 91.0102 124.081 92.0577C125.193 92.5507 126.427 92.5507 127.538 92.181C131.366 90.9486 132.971 91.7496 136.304 92.6123C144.7 94.6457 143.959 98.8974 143.959 98.8974Z" stroke="white" stroke-miterlimit="10" stroke-linecap="round" stroke-linejoin="round"/>
<path d="M104.142 86.0193L101.734 95.2621" stroke="white" stroke-miterlimit="10" stroke-linecap="round" stroke-linejoin="round"/>
<path d="M105.87 86.697L103.092 100.438" stroke="white" stroke-miterlimit="10" stroke-linecap="round" stroke-linejoin="round"/>
<path d="M108.834 86.697L105.624 103.827" stroke="white" stroke-miterlimit="10" stroke-linecap="round" stroke-linejoin="round"/>
<path d="M111.18 85.8342L110.747 92.6122" stroke="white" stroke-miterlimit="10" stroke-linecap="round" stroke-linejoin="round"/>
<path d="M113.217 85.095L112.908 90.8255" stroke="white" stroke-miterlimit="10" stroke-linecap="round" stroke-linejoin="round"/>
<path d="M116.303 84.1089L115.439 89.5313" stroke="white" stroke-miterlimit="10" stroke-linecap="round" stroke-linejoin="round"/>
<path d="M119.698 85.1565L117.785 89.8395" stroke="white" stroke-miterlimit="10" stroke-linecap="round" stroke-linejoin="round"/>
<path d="M121.612 86.0193L120.192 90.1477" stroke="white" stroke-miterlimit="10" stroke-linecap="round" stroke-linejoin="round"/>
<path d="M125.439 87.498L124.02 92.0578" stroke="white" stroke-miterlimit="10" stroke-linecap="round" stroke-linejoin="round"/>
<path d="M128.217 87.9294L126.612 91.4417" stroke="white" stroke-miterlimit="10" stroke-linecap="round" stroke-linejoin="round"/>
<path d="M132.23 86.0193L131.057 91.1336" stroke="white" stroke-miterlimit="10" stroke-linecap="round" stroke-linejoin="round"/>
<path d="M136.243 86.3271L134.761 91.9961" stroke="white" stroke-miterlimit="10" stroke-linecap="round" stroke-linejoin="round"/>
<path d="M138.403 86.2654L137.107 92.0575" stroke="white" stroke-miterlimit="10" stroke-linecap="round" stroke-linejoin="round"/>
<path d="M141.614 88.1758L139.885 93.475" stroke="white" stroke-miterlimit="10" stroke-linecap="round" stroke-linejoin="round"/>
<path d="M143.836 89.8394L142.416 95.1385" stroke="white" stroke-miterlimit="10" stroke-linecap="round" stroke-linejoin="round"/>
<path d="M145.626 91.9961L143.836 98.7741" stroke="white" stroke-miterlimit="10" stroke-linecap="round" stroke-linejoin="round"/>
<path d="M147.725 93.9062L143.157 119.478" stroke="white" stroke-miterlimit="10" stroke-linecap="round" stroke-linejoin="round"/>
<path d="M141.922 100.869L138.156 120.217" stroke="white" stroke-miterlimit="10" stroke-linejoin="round"/>
<path d="M137.107 105.121L135.502 118.8" stroke="white" stroke-miterlimit="10" stroke-linejoin="round"/>
<path d="M133.958 107.277L131.366 119.478" stroke="white" stroke-miterlimit="10" stroke-linejoin="round"/>
<path d="M130.748 106.6L128.835 119.355" stroke="white" stroke-miterlimit="10" stroke-linejoin="round"/>
<path d="M128.218 104.505L126.304 118.061" stroke="white" stroke-miterlimit="10" stroke-linejoin="round"/>
<path d="M124.02 103.211L123.279 117.937" stroke="white" stroke-miterlimit="10" stroke-linejoin="round"/>
<path d="M121.365 102.594L119.699 117.26" stroke="white" stroke-miterlimit="10" stroke-linejoin="round"/>
<path d="M118.834 102.594L116.92 115.473" stroke="white" stroke-miterlimit="10" stroke-linejoin="round"/>
<path d="M116.056 103.026L114.081 114.425" stroke="white" stroke-miterlimit="10" stroke-linejoin="round"/>
<path d="M113.526 101.609L111.797 111.283" stroke="white" stroke-miterlimit="10" stroke-linejoin="round"/>
<path d="M110.994 99.3904L109.698 110.235" stroke="white" stroke-miterlimit="10" stroke-linejoin="round"/>
<path d="M109.698 96.1863L107.352 106.661" stroke="white" stroke-miterlimit="10" stroke-linecap="round" stroke-linejoin="round"/>
<path d="M150.503 95.8782L146.058 119.478" stroke="white" stroke-miterlimit="10" stroke-linecap="round" stroke-linejoin="round"/>
<path d="M151.49 95.5698L148.589 118.923" stroke="white" stroke-miterlimit="10" stroke-linecap="round" stroke-linejoin="round"/>
<path d="M153.713 93.4749L151.552 117.876" stroke="white" stroke-miterlimit="10" stroke-linecap="round" stroke-linejoin="round"/>
<path d="M156.243 90.7021L154.577 116.151" stroke="white" stroke-miterlimit="10" stroke-linecap="round" stroke-linejoin="round"/>
<path d="M159.639 85.1565L157.54 115.288" stroke="white" stroke-miterlimit="10" stroke-linecap="round" stroke-linejoin="round"/>
<path d="M162.973 81.5825L160.935 112.761" stroke="white" stroke-miterlimit="10" stroke-linecap="round" stroke-linejoin="round"/>
<path d="M165.504 78.3784L163.899 108.941" stroke="white" stroke-miterlimit="10" stroke-linecap="round" stroke-linejoin="round"/>
<path d="M168.59 76.345L167.541 102.594" stroke="white" stroke-miterlimit="10" stroke-linecap="round" stroke-linejoin="round"/>
<path d="M170.936 76.2834L169.455 96.864" stroke="white" stroke-miterlimit="10" stroke-linecap="round" stroke-linejoin="round"/>
<path d="M171.245 62.1728C171.245 62.1728 179.517 60.5707 181.122 66.6093" stroke="white" stroke-miterlimit="10" stroke-linecap="round" stroke-linejoin="round"/>
<path d="M172.541 56.4424C172.541 56.4424 181.307 54.5939 182.665 62.2345" stroke="white" stroke-miterlimit="10" stroke-linecap="round" stroke-linejoin="round"/>
<path d="M172.109 52.1904C172.109 52.1904 180.813 50.7116 185.566 55.5178" stroke="white" stroke-miterlimit="10" stroke-linecap="round" stroke-linejoin="round"/>
<path d="M175.072 162.426C175.072 162.426 171.862 179.618 181.431 194.899C181.431 194.899 182.048 202.54 180.813 207.654C179.579 212.768 169.64 234.396 179.887 243.947" stroke="white" stroke-miterlimit="10" stroke-linecap="round" stroke-linejoin="round"/>
<path d="M165.566 164.583C165.566 164.583 167.356 158.852 167.603 154.847C167.85 150.842 173.529 157.25 173.529 157.25L174.455 170.806L165.566 164.583Z" fill="white" stroke="white" stroke-miterlimit="10" stroke-linecap="round" stroke-linejoin="round"/>
<path d="M174.455 148.439C174.455 148.439 175.072 157.373 175.072 162.426" stroke="white" stroke-miterlimit="10" stroke-linecap="round" stroke-linejoin="round"/>
<path d="M93.771 183.438C93.771 183.438 95.3761 197.425 103.648 200.63C111.92 203.834 89.635 210.797 100.438 247.768C100.438 247.768 92.166 217.205 93.4007 198.103C94.6353 179.002 93.771 183.438 93.771 183.438Z" fill="white" stroke="white" stroke-miterlimit="10" stroke-linecap="round" stroke-linejoin="round"/>
<path d="M42.4718 118.061C42.4718 118.061 45.2497 147.145 31.8539 150.041L34.817 152.444C34.817 152.444 57.5344 136.053 47.719 116.644C47.719 116.644 48.3981 121.696 45.2497 132.849" stroke="white" stroke-miterlimit="10" stroke-linecap="round" stroke-linejoin="round"/>
<path d="M60.189 153.368C60.189 153.368 67.9055 152.197 72.6588 149.671C77.4122 147.145 92.7217 147.145 92.7217 147.145C92.7217 147.145 68.7697 158.975 60.189 153.368Z" fill="white" stroke="white" stroke-miterlimit="10" stroke-linecap="round" stroke-linejoin="round"/>
<path d="M129.02 175.612C127.538 178.262 126.18 181.035 124.514 183.561C123.773 184.67 122.415 185.841 121.18 186.149C119.698 186.457 118.649 185.102 118.093 183.623C116.982 180.295 114.822 177.646 112.784 174.257C110.809 178.508 111.488 182.514 111.241 186.396C110.994 190.401 111.179 194.406 111.179 198.473C108.772 199.027 108.957 198.966 107.784 196.809C105.315 192.249 105.624 187.32 105.747 182.452C105.809 178.447 106.179 174.442 106.858 170.498C107.229 168.403 108.402 166.431 109.328 164.459C109.883 163.35 111.859 163.35 112.846 164.336C113.34 164.891 113.772 165.569 114.143 166.246C116.118 169.635 118.093 173.024 120.069 176.413C120.316 176.783 120.624 177.153 121.118 177.769C121.674 176.906 122.229 176.228 122.6 175.489C124.575 171.422 127.415 168.033 130.193 164.583C131.057 163.535 131.983 162.364 133.526 162.919C135.008 163.474 135.564 164.891 135.749 166.37C135.872 167.109 135.749 167.91 135.625 168.649C133.712 177.214 133.218 185.903 132.477 194.591C132.354 195.885 131.983 197.179 131.674 198.473C131.181 200.445 131.119 200.445 128.341 200.506C127.785 192.249 129.329 183.992 129.761 175.797C129.514 175.736 129.267 175.674 129.02 175.612Z" stroke="white" stroke-miterlimit="10" stroke-linejoin="round"/>
<path d="M146.366 196.747C150.07 195.392 153.651 195.515 157.293 196.994C158.528 197.487 160.133 197.302 161.553 197.302C163.096 197.302 164.33 197.795 165.133 199.151C164.639 200.691 163.405 200.876 162.108 200.999C160.688 201.122 159.207 201.246 157.787 201.184C153.527 200.999 149.391 201.923 145.255 202.724C143.65 203.033 142.045 203.279 140.44 203.341C137.107 203.402 135.872 201.554 137.786 198.904C140.07 195.638 142.724 192.619 145.379 189.538C147.478 187.135 149.823 184.978 151.799 182.575C153.219 180.788 154.268 178.755 155.441 176.783C155.75 176.29 155.811 175.674 155.873 175.119C156.182 172.778 155.071 170.375 153.589 169.943C152.169 169.512 149.33 170.744 148.404 172.408C147.231 174.565 146.366 176.906 145.317 179.309C142.971 179.679 142.601 179.433 142.416 177.153C142.045 172.901 143.403 169.635 147.169 167.171C151.243 164.521 155.194 164.398 159.454 166.308C162.725 167.848 163.59 172.778 162.664 175.119C161.182 178.693 160.009 182.452 157.416 185.595C155.318 188.182 153.095 190.339 150.256 192.064C148.589 193.05 147.292 194.652 145.873 196.008C146.12 196.316 146.243 196.501 146.366 196.747Z" stroke="white" stroke-miterlimit="10" stroke-linejoin="round"/>
<path d="M32.9032 145.481C36.8541 141.414 42.2248 132.911 42.0396 116.643C42.0396 114.24 40.6197 112.022 38.3974 110.974C34.6317 109.187 32.8415 107.893 27.7795 102.101C27.7795 102.101 24.8163 98.1578 26.051 92.0575C27.7795 83.6158 18.9518 79.0561 16.9764 84.6017C13.9515 92.9818 14.1367 99.6366 16.3591 106.846C16.4825 107.277 12.0378 105.922 6.91407 105.429C4.81518 105.244 2.90149 106.538 2.3459 108.51C1.48165 111.591 0.864331 115.904 3.02495 118.8C3.02495 118.8 -2.96305 129.583 6.60541 133.219C6.60541 133.219 3.02495 145.85 13.2107 146.405C13.2107 146.405 18.9518 147.514 24.6929 148.254C27.7795 148.685 30.8044 147.637 32.9032 145.481Z" stroke="white" stroke-miterlimit="10" stroke-linecap="round" stroke-linejoin="round"/>
<path d="M7.34607 105.737L31.6068 111.159C31.6068 111.159 39.8788 114.672 31.6068 117.814L10.4944 116.89" stroke="white" stroke-miterlimit="10" stroke-linecap="round" stroke-linejoin="round"/>
<path d="M11.7909 127.427L32.6563 126.872C34.57 126.81 36.3602 125.886 37.4097 124.346C38.706 122.435 38.706 119.724 31.6069 117.876" stroke="white" stroke-miterlimit="10" stroke-linecap="round" stroke-linejoin="round"/>
<path d="M13.087 135.991L31.6684 134.821C32.903 134.759 34.0759 134.451 35.1871 133.896C37.6564 132.602 40.8664 130.076 34.1376 127.427" stroke="white" stroke-miterlimit="10" stroke-linecap="round" stroke-linejoin="round"/>
<path d="M13.3959 145.542L31.7303 141.475C33.3353 141.106 34.6934 139.997 35.249 138.456C35.7429 137.039 35.4342 135.498 32.3476 134.944" stroke="white" stroke-miterlimit="10" stroke-linecap="round" stroke-linejoin="round"/>
</svg>
