<svg width="50" height="50" viewBox="0 0 50 50" fill="none" xmlns="http://www.w3.org/2000/svg">
<path d="M42.8186 3.92764V0.852246C42.8186 0.381543 42.437 0 41.9663 0C41.4956 0 41.1141 0.381641 41.1141 0.852246V3.92754C41.1141 11.053 35.3171 16.8499 28.1917 16.8499H21.1383C19.9761 16.8499 16.4398 16.8499 16.4398 10.0908V9.63965C16.4648 8.24893 16.457 6.86523 16.4481 5.50811C16.4446 4.97803 16.4412 4.43701 16.4398 3.89561V2.80811C16.4398 2.19971 16.9348 1.70459 17.5433 1.70459H37.5633C38.034 1.70459 38.4156 1.32295 38.4156 0.852344C38.4156 0.381738 38.0339 0 37.5632 0H17.5432C16.2756 0 15.2018 0.844629 14.8541 2.00049L14.7947 2.00078C14.6442 2.00215 14.5119 2.0332 14.3983 2.08545C11.6774 2.48867 9.19466 4.27373 7.99085 6.78496C7.91957 6.92852 7.69447 7.49131 7.65345 7.57334C7.64291 7.59443 7.63324 7.61592 7.62445 7.63789C7.33861 8.35225 7.33617 9.0374 7.33617 9.64316C7.31976 10.0795 7.29701 10.5159 7.27279 10.9774C7.13128 13.6755 6.97113 16.7335 8.33207 19.3286C8.55062 19.7454 9.06585 19.9062 9.48265 19.6876C9.89945 19.4689 10.0603 18.9538 9.84164 18.537C8.69779 16.3559 8.83871 13.667 8.97503 11.0667C8.99877 10.6137 9.02337 10.1452 9.04017 9.69072C9.04046 9.68018 9.04076 9.66973 9.04076 9.65918C9.04076 9.14873 9.04076 8.70645 9.19652 8.29805C9.26175 8.16279 9.47796 7.62227 9.51888 7.54033C9.52113 7.53594 9.52328 7.53135 9.52552 7.52695C10.4997 5.48994 12.5259 4.05078 14.7344 3.75869C14.7345 3.81055 14.7349 3.86211 14.735 3.91396V9.65137C14.7181 10.5638 14.6869 11.4765 14.6297 12.382C14.4931 12.4484 13.667 13.2023 13.6084 13.2609C12.3743 14.495 11.5836 16.1157 11.3218 17.9477C11.3198 17.9621 11.3181 17.9766 11.3168 17.9909C11.2448 18.7834 11.2589 19.5369 11.2805 20.2669H9.9596C8.89935 20.2669 8.03695 21.1294 8.03695 22.1896V28.6242C8.03695 29.6845 8.89945 30.5469 9.9596 30.5469H11.2283L10.5991 33.0094C9.40209 37.6939 10.8294 42.6796 14.324 46.021C17.0076 48.5869 20.53 50 24.2429 50C24.3131 50 24.5792 50 24.6494 50C28.362 50 31.8847 48.5869 34.5682 46.0211C38.0627 42.6797 39.4902 37.694 38.2931 33.0095C38.2834 32.9719 38.2713 32.935 38.2566 32.8989L37.2983 30.547H38.526C39.5863 30.547 40.4487 29.6845 40.4487 28.6243V22.1896C40.4487 21.1294 39.5862 20.267 38.526 20.267H37.1733V15.6553C37.1733 15.5946 37.1666 15.5356 37.1546 15.4784C40.5986 12.7998 42.8186 8.61826 42.8186 3.92764ZM11.3123 28.8426H9.9597C9.83939 28.8425 9.74154 28.7446 9.74154 28.6244V22.1897C9.74154 22.0694 9.83939 21.9717 9.9596 21.9717H11.3123V28.8426ZM37.1733 21.9716H38.526C38.6463 21.9716 38.7441 22.0694 38.7441 22.1896V28.6243C38.7441 28.7446 38.6462 28.8424 38.526 28.8424H37.1733V21.9716ZM13.0126 18.1673C13.2194 16.7492 13.816 15.4982 14.7409 14.5408C14.9645 14.3947 15.1142 14.2129 15.2288 14.0735C15.2332 14.0682 15.2372 14.0636 15.2415 14.0582C15.4513 14.7601 15.7253 15.3839 16.0642 15.9251C17.1564 17.6698 18.8636 18.5544 21.1384 18.5544H28.1918C30.8392 18.5544 33.3245 17.8475 35.469 16.6123V21.1192H35.4689V29.6947V29.8621L33.1585 30.929C32.6017 31.1861 32.026 31.4219 31.4474 31.6296C30.7562 31.8777 30.0445 32.0918 29.3265 32.2674C27.9434 31.1994 26.1564 30.6158 24.243 30.6158C22.3456 30.6158 20.5693 31.1914 19.19 32.2447C17.8557 31.9116 16.5537 31.4482 15.3141 30.8649L13.0173 29.7842V29.6947V21.7496V21.1192C13.0173 21.0767 13.0131 21.0351 13.0071 20.994C13.0025 20.8071 12.9971 20.6228 12.9915 20.4418C12.9675 19.6651 12.945 18.9312 13.0126 18.1673ZM33.3902 44.7891C31.0254 47.0502 27.9212 48.2954 24.6494 48.2954C24.5791 48.2954 24.313 48.2954 24.2429 48.2954C20.9711 48.2954 17.8669 47.0502 15.5021 44.7891C12.4517 41.8725 11.206 37.5205 12.2507 33.4314L12.7352 31.5354L14.5881 32.4073C16.0619 33.1009 17.6172 33.6374 19.2104 34.0023C19.4755 34.063 19.7536 33.9936 19.959 33.8155C21.0547 32.8654 22.6161 32.3205 24.2429 32.3205C25.8825 32.3205 27.452 32.8722 28.5491 33.8343C28.7061 33.9719 28.9064 34.0458 29.111 34.0458C29.173 34.0458 29.2356 34.039 29.2974 34.0251C30.2199 33.8183 31.1369 33.5521 32.0232 33.2341C32.6487 33.0096 33.2711 32.7548 33.8732 32.4767L35.8685 31.5553L36.6558 33.4872C37.6751 37.56 36.4267 41.8856 33.3902 44.7891Z" fill="white"/>
<path d="M26.7732 19.6299C24.9078 19.6299 23.3901 21.1475 23.3901 23.013V28.0538C23.3901 28.5245 23.7718 28.9061 24.2424 28.9061C24.713 28.9061 25.0946 28.5245 25.0946 28.0538V23.013C25.0946 22.0874 25.8476 21.3345 26.7731 21.3345C27.2438 21.3345 27.6254 20.9528 27.6254 20.4822C27.6254 20.0116 27.2439 19.6299 26.7732 19.6299Z" fill="white"/>
<path d="M28.8549 24.6907C29.3656 24.6907 29.7796 24.2767 29.7796 23.766C29.7796 23.2553 29.3656 22.8413 28.8549 22.8413C28.3442 22.8413 27.9302 23.2553 27.9302 23.766C27.9302 24.2767 28.3442 24.6907 28.8549 24.6907Z" fill="white"/>
<path d="M18.827 24.6907C19.3378 24.6907 19.7518 24.2767 19.7518 23.766C19.7518 23.2553 19.3378 22.8413 18.827 22.8413C18.3163 22.8413 17.9023 23.2553 17.9023 23.766C17.9023 24.2767 18.3163 24.6907 18.827 24.6907Z" fill="white"/>
<path d="M27.6608 35.9984C27.5353 35.5447 27.0658 35.2788 26.6123 35.404C25.9062 35.5991 25.1728 35.7025 24.4326 35.7112C23.5682 35.7218 22.7105 35.6023 21.8891 35.3575C21.4378 35.223 20.9634 35.4798 20.8288 35.9307C20.6942 36.3816 20.9509 36.8564 21.4019 36.991C22.3491 37.2734 23.3334 37.4164 24.3299 37.4164C24.3707 37.4164 24.4117 37.4162 24.4526 37.4157C25.3394 37.4053 26.2187 37.2811 27.0662 37.047C27.52 36.9216 27.7863 36.4521 27.6608 35.9984Z" fill="white"/>
</svg>
