<svg width="50" height="50" viewBox="0 0 50 50" fill="none" xmlns="http://www.w3.org/2000/svg">
<g clip-path="url(#clip0)">
<path d="M48.3011 23.0855C48.2049 22.7861 47.9485 22.566 47.6378 22.5165C44.5533 22.024 39.8253 21.9333 34.8165 24.2944C32.7999 25.245 30.9048 26.5158 29.1781 28.0727H20.821C19.0944 26.5158 17.1992 25.245 15.1826 24.2944C10.1738 21.9335 5.44584 22.0245 2.36127 22.5165C2.05052 22.566 1.79417 22.7861 1.69798 23.0855C0.586653 26.5435 0.0153627 30.16 -0.000164667 33.8349C-0.0160827 37.6128 0.555305 41.3313 1.69798 44.887C1.79369 45.185 2.04808 45.4043 2.35687 45.4551C3.40668 45.6285 4.64389 45.7553 6.01616 45.7553C8.71987 45.7553 11.9464 45.2623 15.2895 43.6592C17.2703 42.7094 19.1304 41.4451 20.824 39.8998H29.5009C29.962 39.8998 30.3358 39.526 30.3358 39.0649V36.6873C31.3639 36.9875 32.4118 37.2209 33.4645 37.3822C34.2652 37.5047 35.081 37.5877 35.8891 37.6292C35.9035 37.6299 35.918 37.6302 35.9325 37.6302C36.374 37.6302 36.7429 37.284 36.7656 36.838C36.7893 36.3775 36.435 35.9851 35.9744 35.9615C35.2221 35.923 34.4625 35.8456 33.7173 35.7316C32.5769 35.5568 31.4423 35.2914 30.3358 34.9419V32.4581C31.4092 32.1321 32.6505 31.7936 33.6963 31.6602C35.0571 31.4868 36.4416 31.4551 37.8112 31.5656C38.2692 31.6024 38.6735 31.2602 38.7107 30.8005C38.7478 30.3409 38.4053 29.9382 37.9456 29.9011C36.461 29.7811 34.9603 29.8158 33.4853 30.0038C32.4846 30.1312 31.3577 30.4175 30.3357 30.7157V29.276C31.9301 27.8451 33.6754 26.6781 35.5283 25.8045C39.8852 23.7508 44.017 23.7076 46.8659 24.0907C47.8233 27.2355 48.3154 30.513 48.3294 33.8417C48.3438 37.2702 47.8514 40.646 46.8651 43.8847C41.4938 44.5055 37.5083 43.1354 33.1243 41.0332C32.7086 40.8337 32.21 41.0092 32.0105 41.4251C31.8111 41.8409 31.9866 42.3396 32.4024 42.5389C35.7458 44.1422 38.0057 45.5076 43.9829 45.7554C45.3536 45.8124 46.5927 45.6284 47.6422 45.4552C47.9509 45.4044 48.2054 45.1849 48.301 44.8871C49.4437 41.3315 50.0151 37.613 49.9992 33.835C49.9838 30.1601 49.4125 26.5436 48.3011 23.0855ZM19.6632 30.7158C18.6413 30.4176 17.5145 30.1313 16.5136 30.0038C15.0386 29.816 13.5379 29.7813 12.0533 29.9012C11.5936 29.9383 11.2511 30.341 11.2882 30.8006C11.3254 31.2604 11.728 31.6035 12.1877 31.5657C13.5575 31.4553 14.9419 31.4871 16.3026 31.6603C17.3486 31.7936 18.5898 32.1321 19.6631 32.4581V34.942C18.5566 35.2913 17.422 35.5569 16.2817 35.7315C15.5363 35.8456 14.7768 35.9231 14.0244 35.9615C13.5638 35.9851 13.2096 36.3775 13.2332 36.838C13.256 37.284 13.6248 37.6302 14.0663 37.6302C14.0806 37.6302 14.0951 37.6299 14.1097 37.6292C14.9179 37.5877 15.7337 37.5047 16.5344 37.382C17.587 37.2208 18.635 36.9875 19.6631 36.6873V38.6994C18.0997 40.12 16.387 41.2811 14.5672 42.1537C10.1834 44.2559 6.01118 44.287 3.13363 43.8847C2.1474 40.6458 1.65492 37.2701 1.66937 33.8417C1.68333 30.5131 2.17533 27.2355 3.13265 24.0907C5.98139 23.7079 10.1134 23.7509 14.4703 25.8046C16.3231 26.6781 18.0685 27.8451 19.6629 29.2761V30.7158H19.6632ZM28.6659 31.84C28.6659 31.8429 28.6659 31.8458 28.6659 31.8488V38.23H21.333V31.8488C21.333 31.8458 21.333 31.8429 21.333 31.84V29.7424H28.6659V31.84Z" fill="white"/>
</g>
<defs>
<clipPath id="clip0">
<rect width="50" height="50" fill="white"/>
</clipPath>
</defs>
</svg>
