<svg width="53" height="52" viewBox="0 0 53 52" fill="none" xmlns="http://www.w3.org/2000/svg">
<g clip-path="url(#clip0)">
<path d="M47.2554 3.76111H27.0303V3.26779C27.0303 1.60548 25.6779 0.253174 24.0157 0.253174H20.5077C18.8455 0.253174 17.4931 1.60548 17.4931 3.26779V3.76111H12.6149C12.1607 3.76111 11.7928 4.12919 11.7928 4.58329V11.2154H5.1608C4.7066 11.2154 4.33862 11.5834 4.33862 12.0375V42.731C4.33862 42.7583 4.34003 42.7857 4.34276 42.8129C4.34387 42.824 4.34598 42.8347 4.3475 42.8457C4.34972 42.8613 4.35153 42.8769 4.35466 42.8925C4.35718 42.9055 4.36081 42.9181 4.36394 42.9308C4.36726 42.9441 4.37019 42.9573 4.37412 42.9705C4.37795 42.9831 4.38269 42.9952 4.38703 43.0075C4.39167 43.0205 4.396 43.0336 4.40125 43.0465C4.40609 43.058 4.41163 43.069 4.41688 43.0803C4.42303 43.0933 4.42878 43.1066 4.43563 43.1194C4.44148 43.1303 4.44804 43.1404 4.45429 43.1509C4.46175 43.1634 4.46891 43.1761 4.47698 43.1883C4.48464 43.1998 4.49322 43.2106 4.50149 43.2218C4.50925 43.2322 4.51651 43.2429 4.52488 43.253C4.54091 43.2723 4.55786 43.291 4.5755 43.3089C4.57682 43.3103 4.57792 43.3118 4.57924 43.3131L12.9105 51.6444C12.9116 51.6455 12.9128 51.6464 12.9138 51.6473C12.932 51.6652 12.9509 51.6825 12.9708 51.6988C12.98 51.7064 12.9898 51.7129 12.9993 51.7201C13.0114 51.7291 13.0231 51.7384 13.0356 51.7468C13.0468 51.7544 13.0584 51.7608 13.0698 51.7678C13.0813 51.7747 13.0926 51.7819 13.1045 51.7883C13.1162 51.7945 13.1284 51.7999 13.1405 51.8056C13.1528 51.8115 13.1648 51.8175 13.1774 51.8228C13.1891 51.8276 13.2012 51.8315 13.2131 51.8358C13.2266 51.8406 13.2397 51.8457 13.2533 51.8498C13.2654 51.8534 13.2775 51.856 13.2897 51.8591C13.3035 51.8626 13.3172 51.8664 13.3312 51.8691C13.3453 51.872 13.3597 51.8736 13.3739 51.8756C13.3862 51.8773 13.3983 51.8797 13.4107 51.8808C13.4376 51.8835 13.4647 51.8849 13.4918 51.8849H37.6086C38.0628 51.8849 38.4307 51.5168 38.4307 51.0627V47.5H47.2552C47.7094 47.5 48.0774 47.1319 48.0774 46.6778V4.58319C48.0776 4.12919 47.7096 3.76111 47.2554 3.76111ZM19.1375 3.26779C19.1375 2.51217 19.7521 1.89753 20.5077 1.89753H24.0157C24.7713 1.89753 25.3859 2.51217 25.3859 3.26779V3.76111H19.1375V3.26779ZM19.1375 12.8597H23.1935V16.9157H19.1375V12.8597ZM22.9169 18.56C22.6666 18.8921 22.2703 19.1081 21.8234 19.1081H20.5078C20.0609 19.1081 19.6645 18.892 19.4143 18.56H22.9169ZM13.4372 5.40536H17.4932V11.2154H13.4372V5.40536ZM12.6699 46.6779V49.0779L7.1457 43.5537H12.615H12.6699V46.6779ZM36.7866 46.6779V50.2406H14.3141V46.6779V42.7315C14.3141 42.2774 13.9462 41.9093 13.492 41.9093H12.615H5.98298V12.8597H12.615H17.4932V16.9157H12.615H10.8611C10.4069 16.9157 10.0389 17.2838 10.0389 17.7379C10.0389 18.192 10.4069 18.5601 10.8611 18.5601H12.615H17.6081C17.967 19.8237 19.1306 20.7525 20.5078 20.7525H21.8234C23.2006 20.7525 24.3642 19.8238 24.7231 18.5601H32.3471C32.8013 18.5601 33.1692 18.192 33.1692 17.7379C33.1692 17.2838 32.8013 16.9157 32.3471 16.9157H24.838V12.8597H36.7867V46.6779H36.7866ZM46.4334 45.8558H38.4309V12.0375C38.4309 11.5834 38.063 11.2154 37.6088 11.2154H24.8379V7.21419C24.8379 6.76009 24.4699 6.39201 24.0157 6.39201C23.5615 6.39201 23.1935 6.76009 23.1935 7.21419V11.2154H19.1375V5.40536H46.4333V45.8558H46.4334Z" fill="white"/>
<path d="M32.3461 23.9316H12.6142H10.8603C10.4061 23.9316 10.0381 24.2997 10.0381 24.7538C10.0381 25.2079 10.4061 25.5759 10.8603 25.5759H12.6142H32.3461C32.8003 25.5759 33.1683 25.2079 33.1683 24.7538C33.1683 24.2997 32.8003 23.9316 32.3461 23.9316Z" fill="white"/>
<path d="M32.3461 30.9473H12.6142H10.8603C10.4061 30.9473 10.0381 31.3153 10.0381 31.7694C10.0381 32.2235 10.4061 32.5916 10.8603 32.5916H12.6142H32.3461C32.8003 32.5916 33.1683 32.2235 33.1683 31.7694C33.1683 31.3153 32.8003 30.9473 32.3461 30.9473Z" fill="white"/>
<path d="M32.3461 37.963H12.6142H10.8603C10.4061 37.963 10.0381 38.3311 10.0381 38.7852C10.0381 39.2393 10.4061 39.6073 10.8603 39.6073H12.6142H32.3461C32.8003 39.6073 33.1683 39.2393 33.1683 38.7852C33.1683 38.3311 32.8003 37.963 32.3461 37.963Z" fill="white"/>
</g>
<defs>
<clipPath id="clip0">
<rect width="51.6318" height="51.6318" fill="white" transform="translate(0.391602 0.253174)"/>
</clipPath>
</defs>
</svg>
