<svg width="50" height="50" viewBox="0 0 50 50" fill="none" xmlns="http://www.w3.org/2000/svg">
<path d="M18.2684 30.1465C18.2557 30.084 18.2372 30.0224 18.2128 29.9639C18.1884 29.9043 18.1581 29.8476 18.1229 29.7949C18.0868 29.7412 18.0458 29.6914 18.0009 29.6465C17.7743 29.4199 17.4374 29.3154 17.12 29.3799C17.0575 29.3926 16.996 29.4111 16.9374 29.4355C16.8778 29.4599 16.8212 29.4902 16.7684 29.5254C16.7147 29.5605 16.6649 29.6015 16.62 29.6465C16.5751 29.6914 16.5341 29.7412 16.4989 29.7949C16.4637 29.8476 16.4335 29.9043 16.4091 29.9639C16.3846 30.0224 16.3661 30.084 16.3534 30.1465C16.3407 30.209 16.3339 30.2734 16.3339 30.3369C16.3339 30.4004 16.3407 30.4648 16.3534 30.5283C16.3661 30.5898 16.3846 30.6514 16.4091 30.7109C16.4335 30.7695 16.4637 30.8262 16.4989 30.8789C16.5341 30.9326 16.5751 30.9824 16.62 31.0273C16.6649 31.0722 16.7147 31.1133 16.7684 31.1494C16.8212 31.1846 16.8778 31.2148 16.9374 31.2392C16.996 31.2637 17.0575 31.2822 17.12 31.2949C17.1825 31.3076 17.2469 31.3135 17.3104 31.3135C17.5673 31.3135 17.8192 31.209 18.0009 31.0273C18.0458 30.9824 18.0868 30.9326 18.1229 30.8789C18.1581 30.8262 18.1884 30.7695 18.2128 30.7109C18.2372 30.6514 18.2557 30.5898 18.2684 30.5283C18.2811 30.4648 18.287 30.4004 18.287 30.3369C18.287 30.2734 18.2811 30.209 18.2684 30.1465Z" fill="white"/>
<path d="M49.0234 47.0104H47.0006V36.5665V32.2839C47.0006 30.672 45.6893 29.3606 44.0773 29.3606H42.4097V23.4522V19.7278C42.4097 18.116 41.0983 16.8046 39.4864 16.8046H36.4886V13.9692C37.1585 13.8001 37.7927 13.4547 38.3157 12.9316C39.518 11.7295 39.8201 9.89756 39.0676 8.37285L36.3877 2.94365C36.2231 2.61035 35.8837 2.39932 35.512 2.39932C35.1403 2.39932 34.8009 2.61035 34.6363 2.94365L31.9564 8.37295C31.2039 9.89746 31.5061 11.7295 32.7083 12.9317C33.2313 13.4548 33.8655 13.8002 34.5354 13.9693V16.8047H25.9766V12.6066C26.6465 12.4375 27.2807 12.0921 27.8037 11.569C29.006 10.3669 29.308 8.53496 28.5556 7.01025L25.8757 1.58096C25.7111 1.24766 25.3717 1.03662 25 1.03662C24.6283 1.03662 24.2889 1.24766 24.1243 1.58096L21.4444 7.01035C20.692 8.53496 20.9941 10.3669 22.1963 11.569C22.7193 12.0921 23.3535 12.4375 24.0234 12.6066V16.8047H15.4646V13.9724C16.1501 13.7995 16.7788 13.4446 17.2917 12.9317C18.4939 11.7296 18.7961 9.89756 18.0436 8.37295L15.3637 2.94365C15.1991 2.61035 14.8597 2.39932 14.488 2.39932C14.1163 2.39932 13.7769 2.61035 13.6123 2.94365L10.9324 8.37305C10.18 9.89756 10.4821 11.7296 11.6843 12.9318C12.1972 13.4447 12.8259 13.7996 13.5114 13.9725V16.8048H10.5136C8.90166 16.8048 7.59033 18.1161 7.59033 19.728V23.4526V29.3608H5.92266C4.31074 29.3608 2.99941 30.6722 2.99941 32.2841V36.5667V47.0105H0.976562C0.437207 47.0105 0 47.4478 0 47.9871C0 48.5265 0.437207 48.9637 0.976562 48.9637H3.97598H46.024H49.0234C49.5628 48.9637 50 48.5265 50 47.9871C50 47.4478 49.5628 47.0104 49.0234 47.0104ZM34.0894 11.5505C33.4793 10.9405 33.3261 10.0109 33.7079 9.2373L35.5121 5.58213L37.3163 9.2373C37.6981 10.0109 37.5448 10.9405 36.9349 11.5505C36.7994 11.6859 36.6485 11.7964 36.4888 11.8851C35.8832 12.2212 35.1412 12.2212 34.5356 11.8851C34.3757 11.7965 34.2248 11.686 34.0894 11.5505ZM23.5773 10.1879C22.9674 9.57793 22.8141 8.64834 23.1959 7.87471L25 4.21963L26.8042 7.8748C27.186 8.64844 27.0327 9.57803 26.4228 10.188C26.2873 10.3234 26.1364 10.4339 25.9767 10.5226C25.3712 10.8587 24.6291 10.8587 24.0235 10.5226C23.8637 10.4338 23.7128 10.3234 23.5773 10.1879ZM13.0653 11.5505C12.4553 10.9405 12.3021 10.0109 12.6839 9.2373L14.4881 5.58213L16.2923 9.2373C16.6741 10.0108 16.5208 10.9404 15.9108 11.5505C15.7754 11.6859 15.6245 11.7964 15.4647 11.8851C14.8593 12.2212 14.1172 12.2212 13.5116 11.8851C13.3517 11.7965 13.2008 11.686 13.0653 11.5505ZM10.5136 18.7577H39.4865C40.0215 18.7577 40.4566 19.1929 40.4566 19.7278V22.7938C40.0264 22.929 39.5628 22.9912 39.0157 22.9912C37.5593 22.9912 36.8946 22.5481 36.0532 21.9872C35.1166 21.3628 34.0551 20.6552 32.0073 20.6552C29.9597 20.6552 28.8981 21.3628 27.9616 21.9872C27.1202 22.5481 26.4557 22.9912 24.9993 22.9912C23.543 22.9912 22.8784 22.5481 22.0371 21.9872C21.1006 21.3629 20.0392 20.6552 17.9915 20.6552C15.9439 20.6552 14.8825 21.3629 13.946 21.9872C13.1047 22.5481 12.4401 22.9912 10.984 22.9912C10.4371 22.9912 9.97373 22.9289 9.54355 22.7939V19.7278H9.54346C9.54346 19.1929 9.97871 18.7577 10.5136 18.7577ZM45.0475 47.0104H4.95254V37.6247C5.78281 37.7774 6.31172 38.1294 6.93818 38.5471C7.87471 39.1715 8.93613 39.8791 10.9839 39.8791C13.0314 39.8791 14.0929 39.1714 15.0294 38.5471C15.8707 37.9861 16.5353 37.5431 17.9914 37.5431C19.4477 37.5431 20.1123 37.9861 20.9536 38.5471C21.8901 39.1715 22.9516 39.8791 24.9992 39.8791C27.047 39.8791 28.1084 39.1714 29.0449 38.5471C29.8863 37.9861 30.5509 37.5431 32.0072 37.5431C33.4637 37.5431 34.1283 37.9861 34.9697 38.5471C35.9063 39.1714 36.9678 39.8791 39.0156 39.8791C41.0634 39.8791 42.1249 39.1714 43.0615 38.5471C43.6881 38.1294 44.2171 37.7773 45.0475 37.6246V47.0104ZM45.0475 35.649C43.6136 35.8316 42.753 36.4053 41.9781 36.9219C41.1367 37.4828 40.4721 37.9259 39.0156 37.9259C37.5592 37.9259 36.8946 37.4828 36.0531 36.9219C35.1165 36.2976 34.055 35.5898 32.0072 35.5898C29.9596 35.5898 28.898 36.2976 27.9615 36.9219C27.1201 37.4828 26.4556 37.9259 24.9992 37.9259C23.5429 37.9259 22.8783 37.4828 22.037 36.9219C21.1005 36.2975 20.0391 35.5898 17.9913 35.5898C15.9438 35.5898 14.8823 36.2976 13.9458 36.9219C13.1045 37.4828 12.4399 37.9259 10.9838 37.9259C9.52744 37.9259 8.86289 37.4828 8.02158 36.9219C7.24668 36.4053 6.38633 35.8316 4.95254 35.649V32.2838C4.95254 31.7488 5.38779 31.3137 5.92266 31.3137H13.4173C13.9566 31.3137 14.3938 30.8765 14.3938 30.3371C14.3938 29.7978 13.9566 29.3605 13.4173 29.3605H9.54346V24.8067C9.99287 24.8986 10.4677 24.9444 10.9839 24.9444C13.0314 24.9444 14.0929 24.2367 15.0294 23.6124C15.8707 23.0515 16.5353 22.6084 17.9914 22.6084C19.4478 22.6084 20.1123 23.0515 20.9536 23.6124C21.8901 24.2367 22.9516 24.9444 24.9992 24.9444C27.0469 24.9444 28.1084 24.2367 29.0449 23.6124C29.8863 23.0515 30.5509 22.6084 32.0072 22.6084C33.4637 22.6084 34.1283 23.0515 34.9697 23.6124C35.9063 24.2368 36.9679 24.9444 39.0156 24.9444C39.532 24.9444 40.007 24.8985 40.4565 24.8066V29.3606H21.204C20.6646 29.3606 20.2274 29.7979 20.2274 30.3372C20.2274 30.8766 20.6646 31.3138 21.204 31.3138H44.0773C44.6123 31.3138 45.0475 31.749 45.0475 32.2839V35.649Z" fill="white"/>
<path d="M9.52454 44.5838C9.51184 44.5213 9.49329 44.4598 9.46887 44.4012C9.44446 44.3426 9.41418 44.286 9.37903 44.2323C9.34289 44.1795 9.30286 44.1297 9.25696 44.0838C9.21204 44.0389 9.16223 43.9989 9.10852 43.9627C9.05579 43.9276 8.99915 43.8973 8.94055 43.8729C8.88196 43.8485 8.82043 43.8299 8.75793 43.8172C8.44055 43.7538 8.10364 43.8573 7.8761 44.0838C7.83118 44.1297 7.79016 44.1795 7.755 44.2323C7.71985 44.286 7.68957 44.3426 7.66516 44.4012C7.64075 44.4598 7.62219 44.5213 7.6095 44.5838C7.5968 44.6473 7.59094 44.7108 7.59094 44.7752C7.59094 44.8387 7.5968 44.9022 7.6095 44.9657C7.62219 45.0282 7.64075 45.0897 7.66516 45.1483C7.68957 45.2069 7.71985 45.2635 7.755 45.3172C7.79016 45.37 7.83118 45.4198 7.8761 45.4657C8.05774 45.6473 8.30969 45.7518 8.5675 45.7518C8.63098 45.7518 8.69446 45.745 8.75793 45.7323C8.82043 45.7196 8.88196 45.701 8.94055 45.6766C8.99915 45.6522 9.05579 45.6219 9.10852 45.5868C9.16223 45.5506 9.21204 45.5106 9.25696 45.4657C9.30286 45.4198 9.34289 45.37 9.37903 45.3172C9.41418 45.2635 9.44446 45.2069 9.46887 45.1483C9.49329 45.0897 9.51184 45.0282 9.52454 44.9657C9.53723 44.9022 9.54407 44.8387 9.54407 44.7752C9.54407 44.7108 9.53723 44.6474 9.52454 44.5838Z" fill="white"/>
<path d="M20.0205 41.6641C20.0078 41.6016 19.9893 41.54 19.9648 41.4814C19.9404 41.4229 19.9102 41.3662 19.875 41.3125C19.8389 41.2598 19.7979 41.209 19.7529 41.1641C19.708 41.1191 19.6582 41.0781 19.6045 41.043C19.5518 41.0078 19.4951 40.9775 19.4365 40.9531C19.377 40.9287 19.3154 40.9102 19.2539 40.8975C19.1279 40.8721 18.998 40.8721 18.8721 40.8975C18.8096 40.9102 18.748 40.9287 18.6895 40.9531C18.6299 40.9775 18.5732 41.0078 18.5205 41.043C18.4668 41.0781 18.417 41.1191 18.3721 41.1641C18.3271 41.209 18.2861 41.2598 18.251 41.3125C18.2158 41.3662 18.1855 41.4229 18.1611 41.4814C18.1367 41.54 18.1182 41.6016 18.1055 41.6641C18.0928 41.7275 18.0859 41.791 18.0859 41.8545C18.0859 41.9189 18.0928 41.9824 18.1055 42.0459C18.1182 42.1084 18.1367 42.1699 18.1611 42.2285C18.1855 42.2871 18.2158 42.3437 18.251 42.3975C18.2861 42.4502 18.3271 42.501 18.3721 42.5459C18.417 42.5908 18.4668 42.6309 18.5205 42.667C18.5732 42.7021 18.6299 42.7324 18.6895 42.7568C18.748 42.7812 18.8096 42.7998 18.8721 42.8125C18.9346 42.8252 18.999 42.832 19.0625 42.832C19.126 42.832 19.1904 42.8252 19.2539 42.8125C19.3154 42.7998 19.377 42.7812 19.4365 42.7568C19.4951 42.7324 19.5518 42.7021 19.6045 42.667C19.6582 42.6309 19.708 42.5908 19.7529 42.5459C19.7979 42.501 19.8389 42.4502 19.875 42.3975C19.9102 42.3437 19.9404 42.2871 19.9648 42.2285C19.9893 42.1699 20.0078 42.1084 20.0205 42.0459C20.0332 41.9824 20.0391 41.9189 20.0391 41.8545C20.0391 41.791 20.0332 41.7275 20.0205 41.6641Z" fill="white"/>
<path d="M31.3104 44.584C31.2977 44.5215 31.2792 44.46 31.2548 44.4014C31.2303 44.3428 31.2001 44.2861 31.1649 44.2324C31.1298 44.1797 31.0887 44.1299 31.0438 44.084C30.9989 44.0391 30.9491 43.999 30.8954 43.9629C30.8427 43.9277 30.786 43.8975 30.7264 43.873C30.6678 43.8486 30.6063 43.8301 30.5438 43.8174C30.4178 43.792 30.288 43.792 30.162 43.8174C30.1005 43.8301 30.0389 43.8486 29.9794 43.873C29.9208 43.8975 29.8641 43.9277 29.8114 43.9629C29.7577 43.999 29.7079 44.0391 29.663 44.084C29.618 44.1299 29.577 44.1797 29.5409 44.2324C29.5057 44.2861 29.4755 44.3428 29.451 44.4014C29.4266 44.46 29.4081 44.5215 29.3954 44.584C29.3827 44.6475 29.3768 44.7109 29.3768 44.7754C29.3768 44.8389 29.3827 44.9023 29.3954 44.9658C29.4081 45.0283 29.4266 45.0898 29.451 45.1484C29.4755 45.207 29.5057 45.2637 29.5409 45.3174C29.577 45.3701 29.618 45.4209 29.663 45.4658C29.7079 45.5107 29.7577 45.5518 29.8114 45.5869C29.8641 45.6221 29.9208 45.6523 29.9794 45.6768C30.0389 45.7012 30.1005 45.7197 30.162 45.7324C30.2255 45.7451 30.2899 45.752 30.3534 45.752C30.6102 45.752 30.8622 45.6475 31.0438 45.4658C31.0887 45.4209 31.1298 45.3701 31.1649 45.3174C31.2001 45.2637 31.2303 45.207 31.2548 45.1484C31.2792 45.0898 31.2977 45.0283 31.3104 44.9658C31.3231 44.9023 31.33 44.8389 31.33 44.7754C31.33 44.7109 31.3231 44.6475 31.3104 44.584Z" fill="white"/>
<path d="M42.3907 42.248C42.3781 42.1855 42.3595 42.124 42.3351 42.0654C42.3107 42.0068 42.2804 41.9492 42.2452 41.8965C42.2101 41.8437 42.1691 41.793 42.1241 41.748C41.9415 41.5664 41.6906 41.4619 41.4337 41.4619C41.1759 41.4619 40.9249 41.5664 40.7423 41.748C40.6974 41.793 40.6573 41.8437 40.6212 41.8965C40.5861 41.9492 40.5558 42.0068 40.5314 42.0654C40.507 42.124 40.4884 42.1855 40.4757 42.248C40.463 42.3105 40.4572 42.375 40.4572 42.4385C40.4572 42.5029 40.463 42.5664 40.4757 42.6299C40.4884 42.6924 40.507 42.7539 40.5314 42.8125C40.5558 42.8711 40.5861 42.9277 40.6212 42.9805C40.6573 43.0342 40.6974 43.084 40.7423 43.1299C40.7882 43.1748 40.838 43.2148 40.8907 43.251C40.9445 43.2861 41.0011 43.3164 41.0597 43.3408C41.1183 43.3652 41.1798 43.3838 41.2423 43.3965C41.3058 43.4092 41.3693 43.415 41.4337 43.415C41.6906 43.415 41.9425 43.3115 42.1241 43.1299C42.1691 43.084 42.2101 43.0342 42.2452 42.9805C42.2804 42.9277 42.3107 42.8711 42.3351 42.8125C42.3595 42.7529 42.3781 42.6924 42.3907 42.6299C42.4034 42.5664 42.4103 42.5029 42.4103 42.4385C42.4103 42.3749 42.4034 42.3105 42.3907 42.248Z" fill="white"/>
<path d="M32.6737 26.2852C32.661 26.2236 32.6425 26.1621 32.618 26.1025C32.5936 26.0439 32.5634 25.9873 32.5282 25.9346C32.4921 25.8809 32.4511 25.8311 32.4061 25.7861C32.3612 25.7402 32.3114 25.7002 32.2577 25.6641C32.205 25.6289 32.1483 25.5986 32.0897 25.5742C32.0302 25.5498 31.9686 25.5312 31.9071 25.5186C31.7811 25.4932 31.6512 25.4932 31.5253 25.5186C31.4628 25.5312 31.4012 25.5498 31.3427 25.5742C31.2831 25.5986 31.2264 25.6289 31.1737 25.6641C31.12 25.7002 31.0702 25.7402 31.0253 25.7861C30.9803 25.8311 30.9393 25.8809 30.9042 25.9346C30.869 25.9873 30.8387 26.0439 30.8143 26.1025C30.7899 26.1621 30.7714 26.2236 30.7587 26.2852C30.746 26.3486 30.7391 26.4131 30.7391 26.4766C30.7391 26.54 30.746 26.6045 30.7587 26.667C30.7714 26.7295 30.7899 26.791 30.8143 26.8496C30.8387 26.9082 30.869 26.9658 30.9042 27.0186C30.9393 27.0723 30.9803 27.1221 31.0253 27.167C31.0702 27.2119 31.12 27.2529 31.1737 27.2881C31.2264 27.3232 31.2831 27.3535 31.3427 27.3779C31.4012 27.4023 31.4628 27.4209 31.5253 27.4336C31.5878 27.4463 31.6522 27.4531 31.7157 27.4531C31.7792 27.4531 31.8436 27.4463 31.9071 27.4336C31.9686 27.4209 32.0302 27.4023 32.0897 27.3779C32.1483 27.3535 32.205 27.3232 32.2577 27.2881C32.3114 27.2529 32.3612 27.2119 32.4061 27.167C32.4511 27.1221 32.4921 27.0723 32.5282 27.0186C32.5634 26.9658 32.5936 26.9082 32.618 26.8496C32.6425 26.791 32.661 26.7295 32.6737 26.667C32.6864 26.6045 32.6923 26.54 32.6923 26.4766C32.6923 26.4131 32.6864 26.3486 32.6737 26.2852Z" fill="white"/>
<path d="M19.9227 24.9551C19.91 24.8926 19.8915 24.8311 19.8671 24.7725C19.8427 24.7139 19.8124 24.6572 19.7772 24.6035C19.7421 24.5508 19.701 24.5 19.6561 24.4551C19.6112 24.4102 19.5604 24.3691 19.5077 24.334C19.454 24.2988 19.3973 24.2686 19.3387 24.2441C19.2802 24.2197 19.2186 24.2012 19.1561 24.1885C19.0302 24.1631 18.9003 24.1631 18.7743 24.1885C18.7118 24.2012 18.6503 24.2197 18.5917 24.2441C18.5331 24.2686 18.4764 24.2988 18.4227 24.334C18.37 24.3691 18.3202 24.4102 18.2743 24.4551C18.2294 24.5 18.1893 24.5508 18.1532 24.6035C18.118 24.6572 18.0878 24.7139 18.0634 24.7725C18.0389 24.8311 18.0204 24.8926 18.0077 24.9551C17.995 25.0186 17.9891 25.082 17.9891 25.1465C17.9891 25.21 17.995 25.2734 18.0077 25.3369C18.0204 25.3994 18.0389 25.4609 18.0634 25.5195C18.0878 25.5781 18.118 25.6348 18.1532 25.6885C18.1893 25.7412 18.2294 25.791 18.2743 25.8369C18.3202 25.8818 18.37 25.9219 18.4227 25.958C18.4764 25.9932 18.5331 26.0234 18.5917 26.0479C18.6503 26.0723 18.7118 26.0908 18.7743 26.1035C18.8378 26.1162 18.9012 26.123 18.9657 26.123C19.0292 26.123 19.0936 26.1162 19.1561 26.1035C19.2186 26.0908 19.2802 26.0723 19.3387 26.0479C19.3973 26.0234 19.454 25.9932 19.5077 25.958C19.5604 25.9219 19.6112 25.8818 19.6561 25.8369C19.701 25.791 19.7411 25.7412 19.7772 25.6885C19.8124 25.6348 19.8427 25.5781 19.8671 25.5195C19.8915 25.4609 19.91 25.3994 19.9227 25.3369C19.9354 25.2734 19.9413 25.21 19.9413 25.1465C19.9413 25.0819 19.9354 25.0185 19.9227 24.9551Z" fill="white"/>
</svg>
