<svg width="30" height="30" viewBox="0 0 30 30" fill="none" xmlns="http://www.w3.org/2000/svg">
<g opacity="0.6" clip-path="url(#clip0)">
<path d="M26.3377 3.6792H3.66853C1.64494 3.6792 0 5.30673 0 7.3089V22.6384C0 24.6406 1.64494 26.2681 3.66853 26.2681H26.3315C28.3551 26.2681 30 24.6406 30 22.6384V7.31505C30.0062 5.31287 28.3613 3.6792 26.3377 3.6792ZM28.3302 22.6384C28.3302 23.7255 27.4364 24.6099 26.3377 24.6099H3.66853C2.56983 24.6099 1.67598 23.7255 1.67598 22.6384V7.31505C1.67598 6.22798 2.56983 5.34358 3.66853 5.34358H26.3315C27.4302 5.34358 28.324 6.22798 28.324 7.31505V22.6384H28.3302Z" fill="white"/>
<path d="M18.9201 14.7833L26.2572 8.27315C26.5986 7.96607 26.6296 7.44403 26.3193 7.1001C26.0089 6.76231 25.4813 6.7316 25.1337 7.03868L15.0157 16.0239L13.0418 14.2797C13.0356 14.2735 13.0294 14.2674 13.0294 14.2612C12.9859 14.2183 12.9425 14.1814 12.8928 14.1446L4.86054 7.03254C4.51293 6.72546 3.98531 6.75617 3.67494 7.1001C3.36458 7.44403 3.39561 7.96607 3.74322 8.27315L11.1672 14.8386L3.77426 21.6865C3.43906 21.9997 3.42044 22.5217 3.73702 22.8595C3.90461 23.0315 4.12808 23.1236 4.35154 23.1236C4.55638 23.1236 4.76122 23.0499 4.92261 22.9025L12.4273 15.9563L14.4633 17.7558C14.6247 17.8971 14.8233 17.9646 15.0219 17.9646C15.2206 17.9646 15.4254 17.8909 15.5806 17.7497L17.6725 15.8949L25.1337 22.9087C25.2951 23.0622 25.5061 23.1359 25.7109 23.1359C25.9344 23.1359 26.1517 23.0499 26.3193 22.878C26.6358 22.5463 26.6234 22.0181 26.2882 21.7049L18.9201 14.7833Z" fill="white"/>
</g>
<defs>
<clipPath id="clip0">
<rect width="30" height="29.6825" fill="white" transform="translate(0 0.132324)"/>
</clipPath>
</defs>
</svg>
