<svg width="111" height="201" viewBox="0 0 111 201" fill="none" xmlns="http://www.w3.org/2000/svg">
<g clip-path="url(#clip0)">
<path d="M38.1274 133.937C39.1638 134.692 39.982 135.163 40.5274 135.163C39.4365 136.531 43.582 141.153 46.9638 139.785C47.9456 143.888 54.4911 140.634 55.4729 138.323C56.4547 140.634 63.0002 143.888 63.982 139.785C67.4183 141.153 71.5093 136.531 70.4184 135.163C70.9093 135.163 71.782 134.692 72.8183 133.937" stroke="white" stroke-width="2" stroke-miterlimit="10" stroke-linecap="round" stroke-linejoin="round"/>
<path d="M101.564 130.636C103.309 135.163 107.291 137.286 105 145.775C104.673 142.992 103.909 140.964 101.782 140.964C99.4909 144.313 105.927 153.603 103.8 157.612C103.2 154.547 101.673 151.623 99.6545 151.623C97.8545 158.508 101.182 168.931 94.4182 173.317C95.5091 171.477 94.4182 170.11 92.8909 169.874C90.1091 171.619 93.2182 176.382 89.0182 180.249C89.7818 178.41 89.1818 176.382 87 176.241C84.3818 179.825 86.0727 183.126 79.3091 187.276C80.4 185.814 80.4 183.834 78.9818 182.89C67.0909 193.171 70.9091 186.144 55.4727 200.481C39.1636 185.343 44.4545 193.69 32.0182 182.89C30.6545 183.834 30.6545 185.814 31.6909 187.276C24.9272 183.126 26.6182 179.778 24 176.241C21.8182 176.382 21.2182 178.363 21.9818 180.249C17.8363 176.382 20.8909 171.619 18.1091 169.874C16.5818 170.157 15.4909 171.477 16.5818 173.317C9.81816 168.931 13.1454 158.461 11.3454 151.623C9.32725 151.623 7.79998 154.547 7.19998 157.612C5.07271 153.603 11.5091 144.313 9.21816 140.964C7.03634 140.964 6.27271 142.945 5.99998 145.775C3.70907 137.286 7.69089 135.163 9.43634 130.636" stroke="white" stroke-width="2" stroke-miterlimit="10" stroke-linecap="round" stroke-linejoin="round"/>
<path fill-rule="evenodd" clip-rule="evenodd" d="M100.418 131.155C99.7093 131.438 99.0003 131.768 98.2366 132.003C99.9275 133.418 101.4 135.352 102.709 137.71C102.437 134.786 101.618 132.617 100.418 131.155ZM94.9093 137.191V141.907C96.273 146.293 96.873 152.613 95.8366 161.621C100.255 148.51 98.5639 141.153 94.9093 137.191ZM90.3821 134.126V134.55C92.073 135.918 93.7639 138.229 94.9093 141.907V137.191C93.6003 135.776 92.0184 134.786 90.3821 134.126ZM90.3821 162.422V164.497C90.7639 164.969 91.2002 165.441 91.6366 165.865C91.1457 164.875 90.7093 163.743 90.3821 162.422ZM90.1639 134.031C89.8366 133.89 89.5093 133.796 89.1275 133.701C89.3457 133.843 89.5639 133.937 89.7275 134.126C89.9457 134.267 90.1639 134.409 90.3821 134.597V134.173C90.3275 134.079 90.2184 134.079 90.1639 134.031ZM89.2912 142.85C87.5457 144.595 84.9821 157.612 90.3821 164.497V162.422C88.6366 155.301 89.7275 144.407 89.2912 142.85ZM81.2184 166.478V175.061C82.4184 172.42 82.4184 169.496 81.2184 166.478ZM81.2184 147.472V148.321C83.7821 154.028 85.8548 170.251 82.3093 178.363C88.9639 169.827 86.3457 152.141 81.2184 147.472ZM75.8184 139.219V140.54C77.8366 139.691 79.8003 138.464 81.1639 136.861V135.21C79.8003 136.767 77.8366 138.182 75.8184 139.219ZM80.2912 146.765C80.6184 147.095 80.8912 147.661 81.2184 148.321V147.472C80.8912 147.189 80.5639 146.953 80.2912 146.765ZM80.0184 164.214C80.6184 170.392 79.3093 176.382 75.8184 180.438V180.768C78.3821 179.164 80.1821 177.231 81.1639 175.109V166.478C80.8912 165.724 80.5093 164.969 80.0184 164.214ZM75.8184 159.262V169.921C76.8002 165.676 76.6912 162.139 75.8184 159.262ZM75.8184 143.747V145.256C77.2912 144.171 78.5457 142.662 79.4184 140.634C78.5457 141.954 77.2912 142.992 75.8184 143.747ZM70.473 141.2V141.577C72.0548 141.671 73.9639 141.294 75.8184 140.54V139.219C73.9093 140.257 71.9457 140.964 70.473 141.2ZM70.473 145.444V147.236C72.3821 147.048 74.2366 146.388 75.8184 145.256V143.747C74.2366 144.643 72.3821 145.209 70.473 145.444ZM70.473 151.575V154.075C73.473 157.706 75.8184 163.035 75.6548 170.675C75.7093 170.44 75.7639 170.157 75.8184 169.921V159.262C74.8366 155.867 72.8184 153.367 70.473 151.575ZM75.1639 181.145C75.3821 181.004 75.6548 180.862 75.873 180.721V180.391C75.6003 180.674 75.3821 180.909 75.1639 181.145ZM70.473 165.158V172.939C70.8002 175.722 70.8548 178.598 70.473 181.192V184.258C74.0184 178.504 73.2002 170.298 70.473 165.158ZM68.7275 141.2C69.2184 141.436 69.8184 141.577 70.473 141.624V141.247C69.7639 141.341 69.1639 141.341 68.7275 141.2ZM63.9275 145.256V146.246C66.0002 147.095 68.2912 147.472 70.473 147.236V145.444C68.2912 145.774 66.0002 145.68 63.9275 145.256ZM63.9275 148.415V148.84C66.0002 149.877 68.4002 151.575 70.473 154.075V151.575C68.4002 150.019 66.1093 149.029 63.9275 148.415ZM68.073 161.998C68.8912 164.403 69.9821 168.553 70.4184 172.939V165.158C69.7639 163.884 69.0002 162.8 68.073 161.998ZM68.5093 186.616C69.273 185.908 69.873 185.06 70.4184 184.211V181.145C70.1457 183.267 69.5457 185.154 68.5093 186.616ZM63.9275 160.394V166.997C64.2002 170.251 64.3093 173.93 63.9275 177.844V186.097C67.473 176.005 66.3821 166.525 63.9275 160.394ZM60.2184 143.935V144.077C61.3093 144.973 62.5639 145.727 63.9275 146.246V145.256C62.5639 144.973 61.3093 144.501 60.2184 143.935ZM61.6366 147.944C62.3457 148.18 63.1093 148.463 63.9275 148.887V148.463C63.1093 148.18 62.4002 148.038 61.6366 147.944ZM62.2366 156.999C62.8366 159.404 63.5457 162.847 63.873 166.997V160.394C63.3821 159.074 62.8366 157.942 62.2366 156.999ZM60.2184 192.747V193.926C61.8003 191.332 63.0002 188.691 63.9275 186.097V177.844C63.4912 182.607 62.3457 187.653 60.2184 192.747ZM60.2184 152.235V162.988C60.7093 159.498 60.7639 155.773 60.2184 152.235ZM59.7821 143.699C59.9457 143.841 60.0548 143.935 60.2184 144.029V143.888C60.0548 143.841 59.9457 143.794 59.7821 143.699ZM59.3457 148.415V156.527C59.3457 157.187 59.3457 157.848 59.3457 158.461V167.233C59.7275 165.865 60.0002 164.45 60.2184 162.988V152.235C60.0002 150.915 59.7275 149.642 59.3457 148.415ZM59.3457 194.728V195.341C59.673 194.869 59.9457 194.397 60.2184 193.926V192.747C59.9457 193.407 59.6184 194.067 59.3457 194.728ZM55.473 141.341C58.0912 145.256 59.2366 150.868 59.3457 156.527V148.415C58.473 145.727 57.2184 143.322 55.473 141.341ZM56.4548 173.93C57.6548 172.09 58.5821 169.779 59.2912 167.233V158.461C59.1821 164.356 58.0912 170.157 56.4548 173.93ZM58.0366 197.227C58.473 196.614 58.9093 195.954 59.3457 195.341V194.728C58.9093 195.576 58.473 196.425 58.0366 197.227ZM55.473 163.837V164.073C55.5275 163.979 55.5275 163.837 55.5821 163.743C55.5275 163.79 55.473 163.79 55.473 163.837ZM55.3639 141.2C55.4184 141.247 55.4184 141.294 55.473 141.388V141.341C55.4184 141.294 55.3639 141.247 55.3639 141.2ZM55.473 163.837C53.9457 165.346 52.6366 167.516 51.7093 170.062V183.833C52.473 185.531 53.5639 187.135 55.1457 188.408C51.0002 182.371 53.673 169.496 55.473 164.073V163.837ZM51.7093 147.048V147.472C52.1457 147.284 52.5821 147.142 52.9639 147.001C52.5821 147.001 52.1457 147.001 51.7093 147.048ZM51.7093 144.171V145.35C53.2366 144.643 54.3821 143.699 55.1457 142.52C54.273 143.228 53.1275 143.747 51.7093 144.171ZM46.2002 145.067V146.529C48.3275 146.482 50.2366 146.057 51.7639 145.397V144.218C50.1275 144.643 48.273 144.973 46.2002 145.067ZM46.2002 148.557V151.009C48.1093 149.312 50.073 148.132 51.7639 147.425V147.001C49.8548 147.189 47.9457 147.708 46.2002 148.557ZM51.7093 170.062V183.833C49.8548 179.542 50.1821 174.354 51.7093 170.062ZM46.2002 186.522V188.691C47.1275 190.011 48.2184 191.19 49.5821 192.275C48.0002 190.625 46.9093 188.644 46.2002 186.522ZM46.2002 164.026V166.101C46.5275 164.78 46.8548 163.648 47.1275 162.8C46.8002 163.13 46.473 163.554 46.2002 164.026ZM38.5639 144.595V145.35C41.3457 146.246 43.9093 146.576 46.2002 146.529V145.067C43.8548 145.161 41.2366 145.02 38.5639 144.595ZM38.5639 159.31V167.233C38.673 168.034 38.8366 168.883 39.0002 169.732C38.7821 160.489 42.273 154.546 46.2002 151.009V148.557C42.5457 150.396 39.4912 153.792 38.5639 159.31ZM46.2002 164.026C42.7639 169.308 40.7457 180.862 46.2002 188.691V186.522C43.9093 179.825 44.9457 171.336 46.2002 166.101V164.026ZM38.5639 182.088V182.23C38.673 182.277 38.7821 182.324 38.8912 182.371C38.7821 182.324 38.673 182.183 38.5639 182.088ZM38.5639 142.049V143.133C40.7457 143.369 42.873 143.275 44.673 142.945C43.0912 142.898 40.9093 142.615 38.5639 142.049ZM25.3093 134.55C24.9275 133.937 25.0366 134.786 24.8184 134.079C24.873 134.786 24.6003 133.89 24.8184 134.503C26.5093 139.832 32.7821 142.52 38.5639 143.133V142.049C33.6002 140.917 27.7639 138.606 25.3093 134.55ZM34.4184 143.699C35.8366 144.36 37.2002 144.926 38.5639 145.35V144.595C37.2002 144.36 35.8366 144.077 34.4184 143.699ZM38.5639 159.31V167.233C38.1275 164.214 38.1821 161.573 38.5639 159.31ZM33.9821 165.488C30.4366 171.949 30.873 178.221 38.5639 182.277V182.136C34.8002 178.033 33.3275 171.854 33.9821 165.488ZM20.4003 143.322C22.0366 144.926 24.1093 156.244 19.8002 163.271V164.12C26.7275 157.187 24.8184 145.02 20.4003 143.322ZM21.0548 134.079C20.6184 134.267 20.2366 134.456 19.8002 134.692V135.352C20.2912 134.833 20.7821 134.409 21.273 134.079C21.4912 133.937 21.7093 133.796 21.9275 133.654C21.6548 133.796 21.3275 133.937 21.0548 134.079ZM31.3093 146.765C25.4184 150.019 21.9275 169.308 29.2912 178.363C25.3093 169.308 28.4184 151.009 31.3093 147.755V146.765ZM16.3093 137.663V141.483C17.2366 138.7 18.4912 136.72 19.8002 135.399V134.739C18.5457 135.446 17.3457 136.389 16.3093 137.663ZM17.673 165.865C18.4912 165.346 19.2002 164.733 19.8002 164.12V163.271C19.2002 164.214 18.4912 165.11 17.673 165.865ZM16.3093 137.663C12.873 141.813 11.2366 149.123 15.273 161.621C14.1275 152.283 14.8366 145.869 16.3093 141.483V137.663ZM83.1275 131.862L81.6003 134.692C81.4366 134.88 81.3275 135.022 81.1639 135.21V136.861C81.7639 136.201 82.2548 135.446 82.5821 134.692L83.1275 131.862ZM10.9639 131.343C9.60025 132.805 8.67298 134.927 8.3457 137.757C9.65479 135.399 11.1275 133.513 12.8184 132.051C12.1639 131.815 11.5639 131.579 10.9639 131.343Z" fill="white"/>
<path fill-rule="evenodd" clip-rule="evenodd" d="M98.2364 14.8086C102.546 19.8548 102.818 29.57 101.018 33.7673C105.873 29.8058 105.873 23.6277 104.836 19.0059C108.382 24.0522 106.636 43.9069 103.582 51.5942C109.964 68.3363 105.382 107.103 102.055 110.64C101.018 113.516 98.7273 114.601 100.527 106.018C102.327 97.4346 103.582 96.3027 100.527 88.3797C97.4728 80.4567 99.2728 73.3825 99.2728 67.676C99.2728 61.9696 99.0001 54.6596 92.4001 52.6789C76.9637 64.1861 65.3455 67.0158 52.5273 66.6385C62.4546 64.3276 65.1819 62.7241 72.0001 58.1495C55.2001 63.6674 40.3637 63.2429 28.091 58.6211C31.8546 58.6211 34.0364 58.3853 39.6546 57.112C27.7637 56.4517 22.4182 54.0465 18.5455 51.9243C6.81825 59.47 15.6001 76.3065 10.9637 88.3797C7.90916 96.3027 9.1637 97.4346 10.9637 106.018C12.7637 114.601 10.9637 113.516 9.92734 110.64C6.60007 107.103 1.52734 68.3363 7.90916 51.5942C4.74552 43.9069 2.94552 23.8164 6.54552 18.7701C5.50916 23.3919 5.50916 29.8058 10.3637 33.7673C8.5637 29.57 8.83643 19.902 13.1455 14.8086C11.6182 20.7509 11.6182 26.929 17.2364 31.1263C15.9819 26.5045 14.6728 14.1484 23.3455 8.86633C20.7819 18.5815 23.8364 25.6085 25.9092 29.1455C25.6364 15.4689 29.4546 9.52658 34.8001 5.98951C29.9455 14.1484 32.5092 28.0137 35.0728 31.5507C34.0364 16.7894 38.4001 15.0444 41.4546 11.5073C40.2001 18.5343 41.7273 22.7316 42.9819 27.3534C42.9819 16.978 47.8364 8.20608 50.6183 5.09345C48.3273 11.4602 48.0546 22.26 50.3455 26.4574C55.3092 18.0627 54.4364 3.30134 54.1637 0.47168C55.691 3.3485 61.091 18.1099 61.091 26.4574C63.3819 22.26 63.1092 11.4602 60.8182 5.09345C63.6001 8.15892 68.4546 16.978 68.4546 27.3534C69.7092 22.7316 71.2364 17.4496 69.9819 10.3755C73.0364 13.9126 77.3455 16.7422 76.3637 31.5036C78.9273 27.9665 80.6728 13.4409 75.8728 5.2821C81.2182 8.81917 85.3092 15.4217 85.0364 29.0984C87.0546 25.5613 90.6546 18.5343 88.091 8.81917C96.7637 14.1012 94.5273 26.3159 93.2728 30.9377C98.8364 26.7875 99.7637 20.7509 98.2364 14.8086Z" stroke="white" stroke-width="2" stroke-miterlimit="10" stroke-linecap="round" stroke-linejoin="round"/>
<path d="M12.8181 132.051C15.3817 132.947 18.1635 133.607 21.0544 134.079C21.109 134.079 21.2181 134.126 21.3271 134.126C22.4726 134.315 23.6726 134.456 24.8726 134.55C25.0362 134.55 25.1999 134.598 25.3635 134.598C27.0544 134.739 28.7453 134.786 30.3817 134.786C33.109 134.786 35.7272 134.503 38.2362 134.032C47.1272 132.334 53.8362 127.853 55.5817 122.1C57.3272 127.853 64.0362 132.287 72.9272 134.032C75.3817 134.503 77.9999 134.786 80.7817 134.786C81.109 134.786 81.4362 134.786 81.7635 134.786C82.0908 134.786 82.4181 134.786 82.7453 134.786C85.1453 134.739 87.5453 134.503 89.8908 134.173C89.9999 134.173 90.1635 134.126 90.2726 134.126C93.109 133.701 95.8363 132.994 98.3453 132.145C99.109 131.862 99.8181 131.579 100.527 131.296C100.909 131.108 101.291 130.966 101.618 130.777C106.964 128.184 110.618 124.364 110.509 119.27C110.4 112.951 105.164 110.687 101.4 112.243C101.073 112.385 100.691 112.573 100.418 112.809C98.7272 113.941 97.5817 116.016 97.7999 119.034C97.6363 114.648 104.509 114.837 104.673 118.374C104.836 121.911 96.4908 125.448 90.0544 120.261C83.6181 115.073 78.5453 106.961 70.4726 106.961C63.5999 106.961 57.2726 109.366 55.5817 115.544C53.8908 109.366 47.5635 106.961 40.6908 106.961C32.6181 106.961 27.5453 115.026 21.109 120.261C14.6726 125.448 6.32715 121.911 6.49078 118.374C6.65442 114.837 13.5271 114.648 13.3635 119.034C14.0726 109.414 0.818056 109.225 0.65442 119.27C0.599875 124.364 4.19987 128.184 9.54533 130.777C10.0362 131.013 14.4633 132.612 15.0088 132.8" stroke="white" stroke-width="2" stroke-miterlimit="10" stroke-linecap="round" stroke-linejoin="round"/>
<path d="M32.5637 74.5614C32.7274 74.5614 32.9456 74.5614 33.1092 74.5614C39.9274 74.6557 46.8001 75.7404 49.3637 77.5797C49.5274 77.7212 49.691 77.8627 49.8547 77.957C50.6183 78.6644 51.1637 79.5605 51.491 80.598C52.9092 79.9849 54.491 79.7491 55.4728 79.7491C56.4547 79.7491 58.091 79.9849 59.4547 80.598C59.8365 79.5605 60.3819 78.6644 61.1456 77.957C61.2547 77.8155 61.4183 77.7212 61.6365 77.5797C64.1456 75.7404 71.0728 74.6557 77.891 74.5614C78.0547 74.5614 78.2728 74.5614 78.4365 74.5614C85.1456 74.5143 91.8546 75.5046 94.6365 77.7212C94.8001 77.8627 94.9637 78.0042 95.1274 78.1457C97.2546 80.3151 97.9637 83.1919 97.9637 86.0687C97.9637 88.7569 97.3092 91.4451 96.7092 93.5201C95.9456 96.0668 94.091 98.4249 90.8728 100.028C88.2547 101.349 84.7092 102.151 80.1274 102.151C79.5274 102.151 78.9274 102.151 78.3819 102.151M78.4365 78.0042C84.2728 77.957 89.9456 78.6644 91.9092 80.2207C91.9637 80.2679 92.0183 80.3151 92.0728 80.3622C93.491 81.8242 93.9819 83.8993 93.9819 86.0687C93.9819 88.4267 93.4365 90.7848 92.8365 92.6712C92.3456 94.369 91.091 95.9725 88.8546 97.0572C86.8365 98.0947 84.0001 98.7078 80.1274 98.7078C79.5274 98.7078 78.9274 98.7078 78.3819 98.6607M78.4365 98.7078C75.0547 98.6135 72.6547 98.2834 70.8001 97.5288C68.7274 96.7271 67.2547 95.3594 65.6728 93.3315C64.2547 91.445 63.2183 88.4739 62.9456 85.6443C62.7274 83.3334 63.0547 81.2583 64.091 80.2679L64.2001 80.1736C66.0547 78.8531 71.891 78.0513 77.9456 77.957C78.1092 77.957 78.2728 77.957 78.4365 77.957M32.5637 78.0042C32.7274 78.0042 32.891 78.0042 33.0547 78.0042C39.0547 78.0985 44.9456 78.9002 46.8001 80.2207L46.9092 80.3151C47.9456 81.3054 48.2728 83.3805 48.0547 85.6914C47.7819 88.4739 46.7456 91.4922 45.3274 93.3786C43.8001 95.4066 42.2728 96.7271 40.2001 97.576C38.3456 98.3306 35.9456 98.6607 32.5637 98.755M78.3819 102.198C74.4001 102.103 71.4547 101.632 69.0547 100.689C66.2183 99.5567 64.2546 97.8118 62.291 95.2651C60.491 92.907 59.2365 89.3228 58.9092 85.9744C58.8547 85.5499 58.8547 85.1255 58.8547 84.701H58.7456C58.691 84.3709 58.4183 84.0879 58.0365 83.8993C57.2183 83.4277 56.1274 83.239 55.4728 83.239C54.8728 83.239 53.7274 83.4277 52.9092 83.8993C52.5274 84.1351 52.2547 84.3709 52.2001 84.701H52.091C52.091 85.1255 52.091 85.5499 52.0365 85.9744C51.7637 89.2756 50.4547 92.907 48.6547 95.2651C46.7456 97.8118 44.7274 99.5567 41.891 100.689C39.491 101.632 36.5456 102.103 32.5637 102.198C32.0183 102.198 31.4183 102.198 30.8183 102.198C26.2365 102.198 22.691 101.396 20.0728 100.076C16.8547 98.472 15.0001 96.0668 14.2365 93.5673C13.5819 91.445 12.9819 88.7569 12.9819 86.1159C12.9819 83.239 13.691 80.4094 15.8728 78.1928C16.0365 78.0513 16.2001 77.9098 16.3638 77.7684C19.1456 75.5518 25.8547 74.6086 32.5637 74.6086M32.5637 98.7078C32.0183 98.7078 31.4183 98.755 30.8183 98.755C26.9456 98.755 24.1092 98.0947 22.091 97.1044C19.9092 95.9725 18.6547 94.4162 18.1092 92.7184C17.5638 90.832 17.0183 88.4739 17.0183 86.1159C17.0183 83.9936 17.5092 81.9185 18.9274 80.4094C18.9819 80.3622 19.0365 80.3151 19.091 80.2679C21.0547 78.6644 26.7274 78.0042 32.5637 78.0513" stroke="white" stroke-width="2" stroke-miterlimit="10" stroke-linecap="round" stroke-linejoin="round"/>
<path fill-rule="evenodd" clip-rule="evenodd" d="M32.4546 128.702C29.5091 129.551 26.2909 130.07 22.9636 130.07C21.2182 130.07 19.4182 129.928 17.6727 129.598C17.5091 129.551 17.4 129.551 17.2364 129.504L16.2546 129.315L15.2182 129.032C13.5273 128.561 11.7818 127.853 10.1455 127.004C8.23637 125.967 6.38183 124.693 4.69092 123.043C6.38183 125.024 8.18183 126.627 10.0909 127.9C11.0727 128.608 12.1091 129.174 13.1455 129.693L15 130.494L19.7455 131.768L21.2727 131.956C25.7455 132.428 30.1636 131.673 33.9273 130.258C35.7818 129.551 37.5273 128.749 39 127.806L38.9455 126.108C37.0909 127.099 34.8546 128.042 32.4546 128.702ZM48 111.3C51.8182 112.62 54 124.835 42.3818 129.598V130.023C58.2 125.92 53.8909 112.95 48 111.3ZM42.3818 123.986V125.307C44.5091 123.326 45.8182 121.251 45.8727 119.411C45.7091 120.779 44.4546 122.383 42.3818 123.986ZM45.7636 118.515C45.8182 118.751 45.8727 119.034 45.8727 119.317C45.9273 119.034 45.8727 118.751 45.7636 118.515ZM42.3818 117.714V120.213C43.4727 118.28 43.9091 116.252 43.8546 114.412C43.5818 115.356 43.1455 116.488 42.3818 117.714ZM42.3818 109.649V109.838C42.7091 109.791 43.0364 109.791 43.3091 109.838C42.9818 109.791 42.7091 109.696 42.3818 109.649ZM39 130.683C40.2 130.494 41.3455 130.258 42.3818 130.023V129.598C41.3455 130.023 40.2546 130.4 39 130.683ZM39 109.791V110.734C40.2546 110.262 41.4 109.932 42.3818 109.838V109.649C41.3455 109.508 40.2 109.555 39 109.791ZM39 121.581V123.939C40.5273 122.854 41.6182 121.581 42.3818 120.213V117.714C41.5636 118.987 40.4727 120.308 39 121.581ZM39 126.108V127.806C40.2546 127.004 41.4 126.155 42.3818 125.307V123.986C41.4 124.693 40.2546 125.448 39 126.108ZM39 114.978V115.12L39.1636 114.931C39.1091 114.931 39.0546 114.931 39 114.978ZM25.8 120.402C28.2546 116.865 34.3091 112.573 39 110.734V109.791C33.3273 110.828 26.7818 115.591 25.8 120.402ZM27.3818 122.288C26.7818 122.571 26.1818 122.807 25.5818 123.043C22.1455 124.316 18.0546 125.212 13.0909 125.212C17.7273 125.967 21.6 125.825 24.8182 125.071C26.1273 124.788 27.3818 124.411 28.4727 123.939C33.7636 121.817 36.9273 118.044 39 115.073V114.931C36.2727 116.582 32.7273 119.883 27.3818 122.288ZM30.0546 125.967C28.3091 126.391 26.3455 126.674 24.1636 126.816C23.6182 126.863 23.0727 126.863 22.4727 126.863C23.0182 126.91 23.5636 127.004 24.1091 127.004C26.6182 127.193 28.9091 127.146 30.8727 126.863C34.3636 126.391 37.0364 125.307 39 123.845V121.487C36.8727 123.373 33.9818 125.024 30.0546 125.967Z" fill="white"/>
<path fill-rule="evenodd" clip-rule="evenodd" d="M72.2419 130.683C72.2964 130.683 72.3509 130.73 72.4055 130.73C72.3509 130.73 72.2964 130.73 72.2419 130.683ZM101.587 126.721C100.115 127.57 98.5873 128.231 97.0055 128.749C96.5691 128.891 96.1328 129.032 95.6964 129.127C95.26 129.268 94.8237 129.362 94.3328 129.457C94.2782 129.457 94.2237 129.504 94.1691 129.504C92.3691 129.881 90.5691 130.07 88.8237 130.07C85.4964 130.117 82.2237 129.645 79.2237 128.797C76.66 128.089 74.3146 127.146 72.2964 126.061V127.759C73.8782 128.749 75.7328 129.645 77.6964 130.353C79.66 131.06 81.7873 131.579 83.9691 131.862C83.9691 131.862 83.9691 131.862 84.0237 131.862C86.0964 132.145 88.2782 132.145 90.46 131.909C91.06 131.815 91.66 131.768 92.26 131.626C93.7328 131.343 95.2055 130.919 96.6237 130.353C97.3873 130.07 98.151 129.693 98.86 129.315C99.7873 128.844 100.715 128.231 101.642 127.57C103.333 126.344 105.024 124.835 106.551 123.043C104.969 124.552 103.278 125.778 101.587 126.721ZM87.6237 126.863C85.4419 126.769 83.4237 126.486 81.6782 126.061C77.5328 125.118 74.4782 123.42 72.2964 121.581V123.939C74.3691 125.448 77.2055 126.58 80.9146 127.004C82.9328 127.24 85.1691 127.24 87.7328 127.004C88.1146 126.957 88.4419 126.91 88.8237 126.91C88.3873 126.91 88.0055 126.863 87.6237 126.863ZM86.3146 123.279C85.6055 123.043 84.951 122.76 84.2964 122.477C78.6782 120.072 75.0237 116.629 72.2419 114.978V115.12C74.3691 118.185 77.6419 122.005 83.1509 124.128C84.2964 124.599 85.6055 124.929 86.9691 125.212C90.0782 125.825 93.7873 125.92 98.1509 125.212C93.5146 125.212 89.5873 124.458 86.3146 123.279ZM72.2419 109.791V110.734C76.9328 112.573 82.9873 116.865 85.4419 120.402C84.46 115.591 77.9146 110.828 72.2419 109.791ZM68.86 129.598V130.023C69.8964 130.306 71.0419 130.494 72.2419 130.683C71.0419 130.4 69.8964 130.023 68.86 129.598ZM68.86 109.649V109.838C69.8419 109.932 70.9873 110.215 72.2419 110.734V109.791C71.0964 109.555 69.9509 109.508 68.86 109.649ZM72.1328 114.884L72.2964 115.073V114.931C72.2419 114.931 72.1873 114.931 72.1328 114.884ZM68.86 117.714V120.213C69.6237 121.581 70.7691 122.854 72.2419 123.939V121.581C70.7691 120.308 69.6782 118.987 68.86 117.714ZM68.86 123.986V125.307C69.8419 126.203 70.9873 127.052 72.2419 127.806V126.108C70.9873 125.448 69.8419 124.694 68.86 123.986ZM63.2419 111.3C57.3509 112.95 53.0964 125.92 68.86 130.023V129.598C57.2419 124.835 59.4237 112.62 63.2419 111.3ZM67.9873 109.838C68.26 109.791 68.5873 109.791 68.9146 109.838V109.649C68.5873 109.696 68.26 109.791 67.9873 109.838ZM67.3873 114.412C67.3328 116.205 67.7691 118.28 68.86 120.213V117.714C68.1509 116.488 67.66 115.356 67.3873 114.412ZM65.3691 119.459C65.3691 119.129 65.3691 118.798 65.4782 118.515C65.3691 118.798 65.3691 119.129 65.3691 119.459ZM65.3691 119.459C65.4237 121.298 66.7328 123.373 68.86 125.307V123.986C66.8419 122.43 65.5873 120.779 65.3691 119.459Z" fill="white"/>
<path fill-rule="evenodd" clip-rule="evenodd" d="M78.0547 59.5172V60.366C87.1638 56.7818 91.9638 51.4055 94.1456 46.5007C91.0365 50.7452 86.0729 55.6971 78.0547 59.5172ZM78.0547 52.16V53.3391C81.9819 51.2168 85.2547 48.7645 88.091 46.5007C85.2547 48.2928 81.9819 50.2736 78.0547 52.16ZM68.0183 63.1957C71.8365 62.4883 75.1638 61.4979 78.0547 60.366V59.5172C75.1092 60.932 71.8365 62.1582 68.0183 63.1957ZM52.4183 58.4325V59.47C63.4365 59.5172 71.6183 56.7818 78.0547 53.2919V52.1129C71.6183 55.1783 63.4365 57.8194 52.4183 58.4325ZM52.4183 52.443V54.0465C57.2183 53.4806 61.5819 52.3015 65.2365 50.5094C61.5819 51.3583 57.1638 52.0657 52.4183 52.443ZM25.3638 50.6981C33.8183 54.0465 43.691 55.084 52.4183 54.0465V52.443C43.691 53.1976 33.8183 52.9146 25.3638 50.6981ZM39.6001 58.3381C44.2365 59.1399 48.491 59.47 52.4183 59.5172V58.4796C48.491 58.6683 44.2365 58.6683 39.6001 58.3381Z" fill="white"/>
<path fill-rule="evenodd" clip-rule="evenodd" d="M105.382 30.7017C105.491 33.6729 105.164 35.9366 101.127 38.8134C106.527 37.6815 106.473 34.8519 105.382 30.7017ZM99.7092 27.7306C99.0002 34.8047 95.9456 39.8038 91.1456 42.3976C97.7456 40.1811 101.346 35.2763 99.7092 27.7306ZM90.6547 21.694C90.1092 28.1079 88.5274 33.0126 84.982 36.2196C90.6002 33.5785 92.0729 28.6738 90.6547 21.694ZM73.1456 20.0433C73.1456 24.2878 73.1456 28.4852 70.582 33.9558C74.782 28.8624 74.2911 24.5236 73.1456 20.0433ZM65.6729 18.6285C68.0183 23.2503 65.6729 32.9183 62.182 40.4169C67.3092 34.9934 69.4911 25.0896 65.6729 18.6285ZM81.2729 23.7691C81.4911 29.617 78.0547 37.0213 74.1274 40.4169C79.8001 37.6815 83.782 30.4188 81.2729 23.7691ZM6.49104 30.7017C5.40013 34.8519 5.29104 37.6815 10.7456 38.8134C6.70922 35.9366 6.38195 33.6729 6.49104 30.7017ZM12.1638 27.7306C10.5274 35.2763 14.182 40.1811 20.6729 42.3976C15.9274 39.8038 12.8183 34.7576 12.1638 27.7306ZM21.2183 21.694C19.8001 28.6738 21.2729 33.5785 26.891 36.2196C23.4001 32.9654 21.8183 28.0607 21.2183 21.694ZM38.7274 20.0433C37.6365 24.5236 37.091 28.8624 41.291 33.9558C38.7274 28.5323 38.7274 24.2878 38.7274 20.0433ZM46.2001 18.6285C42.4365 25.0896 44.5638 34.9462 49.691 40.4169C46.2001 32.9654 43.8547 23.2974 46.2001 18.6285ZM30.6001 23.7691C28.091 30.4188 32.0729 37.6815 37.7456 40.4169C33.8729 37.0213 30.382 29.617 30.6001 23.7691ZM56.0183 7.78149C56.5092 14.8556 56.782 30.1829 55.8001 36.9741C58.2001 30.3716 58.9092 15.0914 56.0183 7.78149Z" fill="white"/>
</g>
<defs>
<clipPath id="clip0">
<rect width="111" height="201" fill="white"/>
</clipPath>
</defs>
</svg>
