<svg width="50" height="50" viewBox="0 0 50 50" fill="none" xmlns="http://www.w3.org/2000/svg">
<path d="M7.12881 12.6682C6.94717 12.4866 6.69522 12.3831 6.43839 12.3831C6.18155 12.3831 5.9296 12.4867 5.74805 12.6682C5.56641 12.8508 5.46182 13.1018 5.46182 13.3586C5.46182 13.6165 5.56631 13.8684 5.74805 14.05C5.9296 14.2317 6.18155 14.3362 6.43839 14.3362C6.69522 14.3362 6.94717 14.2318 7.12881 14.05C7.31143 13.8674 7.41495 13.6165 7.41495 13.3586C7.41495 13.1018 7.31143 12.8508 7.12881 12.6682Z" fill="white"/>
<path d="M38.7597 33.4644C38.5781 33.2827 38.3262 33.1792 38.0692 33.1792C37.8124 33.1792 37.5605 33.2827 37.3789 33.4644C37.1973 33.646 37.0927 33.8979 37.0927 34.1548C37.0927 34.4126 37.1972 34.6645 37.3789 34.8451C37.5605 35.0277 37.8124 35.1322 38.0692 35.1322C38.3262 35.1322 38.5781 35.0277 38.7597 34.8451C38.9413 34.6636 39.0458 34.4125 39.0458 34.1548C39.0458 33.8979 38.9414 33.6461 38.7597 33.4644Z" fill="white"/>
<path d="M49.029 4.5769C48.4019 3.94976 47.568 3.60425 46.681 3.60425C45.794 3.60425 44.9602 3.94966 44.3329 4.5769L38.2574 10.6526C38.3311 10.3261 38.3713 9.98724 38.3713 9.63871V8.38998C38.3713 5.85376 36.308 3.79048 33.7718 3.79048C31.2357 3.79048 29.1724 5.85376 29.1724 8.38998V9.63871C29.1724 10.6234 29.4844 11.5359 30.0134 12.285H19.9865C20.5154 11.5361 20.8275 10.6234 20.8275 9.63871V8.38998C20.8275 5.85376 18.7642 3.79048 16.2281 3.79048C13.6919 3.79048 11.6286 5.85376 11.6286 8.38998V9.63871C11.6286 9.98705 11.6688 10.326 11.7426 10.6525L5.66699 4.5769C4.37217 3.28228 2.26582 3.28228 0.971 4.5769C-0.323626 5.87153 -0.323626 7.97807 0.971 9.27289L3.45273 11.7546C3.83418 12.1359 4.45244 12.1359 4.83398 11.7546C5.21533 11.3733 5.21533 10.7548 4.83398 10.3734L2.35225 7.89174C1.81924 7.35854 1.81914 6.49106 2.35225 5.95805C2.88535 5.42495 3.75273 5.42495 4.28584 5.95805L11.1777 12.8498C12.073 13.7451 13.2632 14.2381 14.5291 14.2381H25.0124H35.4708C36.7368 14.2381 37.927 13.7451 38.8223 12.8498L45.7141 5.95805C46.2472 5.42495 47.1146 5.42495 47.6477 5.95805C48.1808 6.49106 48.1807 7.35854 47.6477 7.89164L37.3786 18.1612C37.1954 18.3444 37.0925 18.5927 37.0925 18.8517V24.7769H30.4515V23.1166V17.9494C30.4515 17.4102 30.0142 16.9728 29.4749 16.9728H20.5252C19.9859 16.9728 19.5485 17.4101 19.5485 17.9494V23.1166V24.7769H12.9075V23.1166V18.8517C12.9075 18.5927 12.8046 18.3444 12.6215 18.1612L9.29384 14.8335C8.91239 14.4523 8.29413 14.4523 7.91259 14.8335C7.53124 15.2149 7.53124 15.8333 7.91259 16.2148L10.9543 19.2565V45.4193C10.9543 45.9586 11.3916 46.396 11.9309 46.396H20.5253C21.0645 46.396 21.5019 45.9587 21.5019 45.4193V18.926H28.4984V45.419C28.4984 45.9583 28.9357 46.3957 29.4751 46.3957H38.0693C38.6085 46.3957 39.0459 45.9584 39.0459 45.419V38.1272C39.0459 37.588 38.6086 37.1506 38.0693 37.1506C37.5299 37.1506 37.0926 37.5879 37.0926 38.1272V44.4423H34.7487V31.6457C34.7487 31.1064 34.3114 30.669 33.772 30.669C33.2327 30.669 32.7954 31.1063 32.7954 31.6457V44.4423H30.4514V26.7301H37.0924V30.5743C37.0924 31.1136 37.5297 31.551 38.0691 31.551C38.6084 31.551 39.0457 31.1137 39.0457 30.5743V19.2563L49.029 9.27279C50.3236 7.97807 50.3236 5.87153 49.029 4.5769ZM18.8743 9.63871C18.8743 11.0978 17.6873 12.285 16.2281 12.285C14.7689 12.285 13.5818 11.0979 13.5818 9.63871V8.38998C13.5818 6.9309 14.7689 5.7437 16.2281 5.7437C17.6873 5.7437 18.8743 6.9308 18.8743 8.38998V9.63871ZM36.4182 9.63871C36.4182 11.0978 35.2311 12.285 33.7719 12.285C32.3127 12.285 31.1257 11.0979 31.1257 9.63871V8.38998C31.1257 6.9309 32.3127 5.7437 33.7719 5.7437C35.2311 5.7437 36.4182 6.9308 36.4182 8.38998V9.63871ZM19.5486 44.4423H17.2048V31.6458C17.2048 31.1065 16.7675 30.6691 16.2281 30.6691C15.6888 30.6691 15.2514 31.1064 15.2514 31.6458V44.4424H12.9076V26.7301H19.5486V44.4423Z" fill="white"/>
</svg>
