<svg width="74" height="74" viewBox="0 0 74 74" fill="none" xmlns="http://www.w3.org/2000/svg">
<path d="M37 0C22.655 0 10.9844 11.6706 10.9844 26.0156C10.9844 30.8623 12.3269 35.5923 14.8678 39.6958L35.5191 72.9751C35.9147 73.6127 36.6116 74 37.3612 74C37.367 74 37.3726 74 37.3784 74C38.1344 73.9941 38.8328 73.5947 39.2212 72.9461L59.3461 39.3443C61.7468 35.3275 63.0156 30.7185 63.0156 26.0156C63.0156 11.6706 51.345 0 37 0ZM55.6252 37.1182L37.3284 67.6675L18.553 37.4113C16.4381 33.9958 15.2914 30.0553 15.2914 26.0156C15.2914 14.0614 25.0458 4.30703 37 4.30703C48.9542 4.30703 58.6941 14.0614 58.6941 26.0156C58.6941 29.9355 57.623 33.7752 55.6252 37.1182Z" fill="#FFDA44"/>
<path d="M37 13.0078C29.8275 13.0078 23.9922 18.8431 23.9922 26.0156C23.9922 33.1423 29.7325 39.0234 37 39.0234C44.3571 39.0234 50.0078 33.064 50.0078 26.0156C50.0078 18.8431 44.1725 13.0078 37 13.0078ZM37 34.7164C32.1933 34.7164 28.2992 30.8093 28.2992 26.0156C28.2992 21.234 32.2183 17.3148 37 17.3148C41.7817 17.3148 45.6863 21.234 45.6863 26.0156C45.6863 30.7393 41.8828 34.7164 37 34.7164Z" fill="#FFDA44"/>
</svg>
