<svg width="50" height="50" viewBox="0 0 50 50" fill="none" xmlns="http://www.w3.org/2000/svg">
<path d="M45.3125 0H4.6875C2.10234 0 0 2.10234 0 4.6875V45.3125C0 47.8977 2.10234 50 4.6875 50H45.3125C47.8977 50 50 47.8977 50 45.3125V4.6875C50 2.10234 47.8977 0 45.3125 0ZM34.1797 7.64453C34.1797 5.92656 35.5859 4.51953 37.3047 4.51953H41.2102C42.9289 4.51953 44.3352 5.92656 44.3352 7.64453V12.3766C44.3352 14.0945 42.9289 15.5016 41.2102 15.5016H37.3047C35.5859 15.5016 34.1797 14.0945 34.1797 12.3766V7.64453ZM25 13.9773C31.0781 13.9773 36.0227 18.9227 36.0227 25C36.0227 31.0773 31.0781 36.0227 25 36.0227C18.9219 36.0227 13.9773 31.0773 13.9773 25C13.9773 18.9227 18.9219 13.9773 25 13.9773ZM45.3125 46.875H4.6875C3.82578 46.875 3.125 46.175 3.125 45.3125V21.2039H4.6875H9.875H11.3937C11.0539 22.4156 10.8523 23.6836 10.8523 25C10.8523 32.8016 17.1992 39.1477 25 39.1477C32.8008 39.1477 39.1477 32.8016 39.1477 25C39.1477 23.6828 38.9453 22.4148 38.6063 21.2039H40.125H45.3125H46.875V45.3125C46.875 46.175 46.1742 46.875 45.3125 46.875Z" fill="white"/>
</svg>
