<svg width="30" height="31" viewBox="0 0 30 31" fill="none" xmlns="http://www.w3.org/2000/svg">
<g opacity="0.6" clip-path="url(#clip0)">
<path d="M24.4141 0.777832H5.58598C2.50588 0.777832 0 3.25719 0 6.30464V24.9336C0 27.981 2.50588 30.4604 5.58598 30.4604H24.4141C27.4941 30.4604 30 27.981 30 24.9336V6.30464C30 3.25719 27.4941 0.777832 24.4141 0.777832ZM28.2422 24.9336C28.2422 27.022 26.5249 28.7212 24.4141 28.7212H5.58598C3.47514 28.7212 1.75781 27.022 1.75781 24.9336V6.30464C1.75781 4.21619 3.47514 2.51704 5.58598 2.51704H24.4141C26.5249 2.51704 28.2422 4.21619 28.2422 6.30464V24.9336Z" fill="white"/>
<path d="M15 9.16089C11.4008 9.16089 8.47266 12.0581 8.47266 15.6192C8.47266 19.1803 11.4008 22.0774 15 22.0774C18.5992 22.0774 21.5273 19.1803 21.5273 15.6192C21.5273 12.058 18.5992 9.16089 15 9.16089ZM15 20.3382C12.37 20.3382 10.2305 18.2213 10.2305 15.6192C10.2305 13.0171 12.3701 10.9001 15 10.9001C17.6299 10.9001 19.7695 13.0171 19.7695 15.6192C19.7695 18.2213 17.63 20.3382 15 20.3382Z" fill="white"/>
<path d="M24.0943 6.62102C23.9309 6.45927 23.7041 6.36646 23.4727 6.36646C23.2412 6.36646 23.0145 6.45927 22.851 6.62102C22.6876 6.78276 22.5938 7.00712 22.5938 7.23606C22.5938 7.46506 22.6876 7.68941 22.851 7.85116C23.0151 8.01291 23.2412 8.10567 23.4727 8.10567C23.7041 8.10567 23.9303 8.01291 24.0943 7.85116C24.2578 7.68883 24.3516 7.46506 24.3516 7.23606C24.3516 7.00712 24.2578 6.78329 24.0943 6.62102Z" fill="white"/>
</g>
<defs>
<clipPath id="clip0">
<rect width="30" height="29.6825" fill="white" transform="translate(0 0.777832)"/>
</clipPath>
</defs>
</svg>
