<svg width="104" height="53" viewBox="0 0 104 53" fill="none" xmlns="http://www.w3.org/2000/svg">
<path d="M1.01933 38.9736C-0.353917 35.6562 28.9993 2.48212 33.119 1.87896C34.8356 1.57737 40.8435 3.99003 41.1868 5.95032C41.3585 7.00586 38.9553 11.8312 33.8056 27.0611C33.8056 27.2119 48.7397 9.7201 54.061 4.89478C59.8973 -0.382913 61.0989 -0.382913 63.5021 0.371044C65.9053 1.125 68.8234 3.38687 68.4801 4.14083C67.7935 5.64874 52.0012 34.2991 52.0012 52.394C52.0012 52.9972 47.7098 51.7909 44.4483 48.0211C43.7617 47.2671 47.0231 34.2991 51.3145 22.8389C55.4343 12.2836 60.7556 2.7837 60.7556 2.9345C51.3145 9.7201 33.2907 35.9578 32.7757 37.0133C32.2607 38.0689 26.5961 35.6562 25.3945 33.3943C23.3346 29.6246 33.8056 4.44241 33.8056 4.44241C27.626 10.4741 16.4684 21.0294 8.05723 43.6481C8.05723 43.7989 2.39258 42.1402 1.01933 38.9736Z" fill="#F6E200"/>
<path d="M76.9529 17.4443C75.9131 16.992 71.754 12.9214 72.4472 11.5646C78.166 2.06659 92.5497 0.106691 97.5753 2.36811C102.254 4.47877 107.28 9.30314 97.0554 18.8011C93.7628 21.9671 83.3649 32.0681 70.7142 39.6062C69.6744 40.2092 85.2712 38.7016 96.7088 40.963C98.4418 41.2646 97.9219 42.7722 97.0554 42.7722C71.0608 40.963 62.3959 45.1844 61.1828 45.0336C59.9698 44.8828 56.6771 40.0585 58.5834 39.1539C70.021 33.5757 76.2597 27.9976 80.2456 24.53C91.3366 15.0321 99.3083 6.74019 96.3622 4.7803C94.456 3.42344 89.7769 5.08182 85.0979 8.09705C78.3393 12.9214 76.9529 17.4443 76.9529 17.4443Z" fill="#F6E200"/>
</svg>
