<svg width="12" height="12" viewBox="0 0 12 12" fill="none" xmlns="http://www.w3.org/2000/svg">
<g clip-path="url(#clip0)">
<path d="M0.280855 4.15543L0.280849 4.15541C0.0287902 3.487 -0.0997224 2.87308 -0.100243 2.35909C-0.100761 1.84674 0.0262643 1.4206 0.300881 1.14618C0.30089 1.14618 0.3009 1.14617 0.30091 1.14616M0.280855 4.15543L2.2351 0.000790938C1.55621 -0.0234262 1.04402 0.512984 0.590757 0.989658L0.583607 0.997192C0.511067 1.07364 0.440762 1.14773 0.371592 1.2169L0.30091 1.14616M0.280855 4.15543C0.835621 5.62582 1.9283 7.21962 3.35426 8.64558C4.7798 10.0711 6.37319 11.1638 7.8436 11.7182C8.51423 11.9712 9.12952 12.1 9.64434 12.1C10.1548 12.1 10.5798 11.973 10.8526 11.7C10.9141 11.6389 10.9795 11.5765 11.0477 11.5116C11.0577 11.502 11.0678 11.4924 11.078 11.4827L11.0806 11.4802C11.317 11.2558 11.5776 11.0084 11.7747 10.7304C11.9737 10.4497 12.1137 10.1302 12.0986 9.76145L12.0986 9.76142C12.0774 9.25076 11.7613 8.77383 11.1741 8.30199C10.3157 7.61189 9.70854 7.40068 9.21245 7.47958C8.72679 7.55682 8.37839 7.91026 8.03598 8.25764L8.0242 8.26959L8.02403 8.26976L7.8974 8.39761C7.89736 8.39765 7.89732 8.39769 7.89728 8.39773M0.280855 4.15543L7.89728 8.39773M0.30091 1.14616C0.369125 1.07794 0.438619 1.00471 0.511466 0.927939L0.51822 0.920822L0.518289 0.920749C0.743657 0.683741 0.991648 0.423027 1.27058 0.225747C1.55102 0.0273968 1.87008 -0.112294 2.23867 -0.0991455L2.23924 -0.0991251C2.74912 -0.0780068 3.22646 0.238607 3.69827 0.825707C4.38897 1.68471 4.60001 2.29226 4.5205 2.78866C4.44273 3.27417 4.08886 3.62259 3.74099 3.96509L3.72823 3.97766L3.72802 3.97786L3.60224 4.10245C3.60219 4.10249 3.60215 4.10254 3.6021 4.10258C3.59061 4.11413 3.56512 4.14646 3.56132 4.22132C3.55736 4.29925 3.57699 4.42575 3.66658 4.62062C3.8463 5.01154 4.29522 5.65135 5.32165 6.67778C5.9914 7.34753 6.5584 7.83347 7.0075 8.12535C7.14956 8.21766 7.34262 8.33021 7.52272 8.39404C7.61294 8.42602 7.69399 8.44359 7.76049 8.44339C7.82579 8.44319 7.86873 8.4262 7.89728 8.39773M0.30091 1.14616L7.89728 8.39773M0.955863 1.33665L0.955871 1.33664C1.14982 1.13253 1.34947 0.92272 1.55924 0.763153C1.76934 0.603337 1.97739 0.503603 2.18667 0.503603C2.19739 0.503603 2.20591 0.503615 2.2141 0.503925C2.50958 0.516643 2.851 0.735053 3.22842 1.20333C3.79835 1.91219 3.95785 2.33811 3.92108 2.65366C3.90283 2.81025 3.83522 2.94968 3.72774 3.09285C3.61895 3.23777 3.47406 3.38062 3.3052 3.54674L3.30506 3.54687L3.17631 3.67401L3.17631 3.67401L3.17578 3.67454C3.02225 3.82842 2.94656 4.02051 2.94965 4.24613C2.95267 4.46782 3.03146 4.71795 3.17687 4.99605C3.46743 5.55175 4.03997 6.24865 4.89529 7.10377C5.5883 7.79719 6.18891 8.31212 6.67891 8.63085L6.67894 8.63087C7.03172 8.86017 7.34758 8.99917 7.62248 9.03646C7.90196 9.07438 8.1415 9.00689 8.32463 8.82353L8.32491 8.82325L8.45407 8.69288L8.45423 8.69271C8.62036 8.52425 8.76318 8.3797 8.90804 8.2712C9.05116 8.16401 9.1905 8.09661 9.347 8.07852C9.66239 8.04206 10.0881 8.20169 10.7966 8.77146L10.7966 8.77149C11.2653 9.14814 11.4837 9.49 11.4959 9.78544C11.5048 9.99955 11.4079 10.2121 11.2469 10.4271C11.0861 10.6419 10.8714 10.8461 10.6628 11.0444L10.7317 11.1169L10.663 11.0442C10.5815 11.1212 10.5015 11.1972 10.4265 11.2722C10.2721 11.4266 9.97293 11.5106 9.55029 11.4944C9.13302 11.4784 8.61735 11.3653 8.05713 11.1537L8.05706 11.1537C6.67199 10.6316 5.15308 9.59044 3.78144 8.21921C2.40942 6.84719 1.36823 5.32747 0.845773 3.94277C0.634502 3.38251 0.521346 2.86681 0.50527 2.44948C0.488988 2.02678 0.572854 1.7276 0.727622 1.573L0.727661 1.57296C0.800168 1.50046 0.873675 1.42312 0.948348 1.34455L0.955863 1.33665Z" fill="#F6E200" stroke="#F6E200" stroke-width="0.2"/>
</g>
<defs>
<clipPath id="clip0">
<rect width="12" height="12" fill="white"/>
</clipPath>
</defs>
</svg>
