<svg width="27" height="24" viewBox="0 0 27 24" fill="none" xmlns="http://www.w3.org/2000/svg">
<g clip-path="url(#clip0)">
<path d="M13.351 0.880127C8.33862 0.880127 4.26074 4.47594 4.26074 8.89575C4.26074 10.3891 4.72985 11.8464 5.61766 13.1107L12.8335 23.3644C12.9718 23.5608 13.2153 23.6801 13.4772 23.6801C13.4792 23.6801 13.4812 23.6801 13.4832 23.6801C13.7474 23.6783 13.9914 23.5553 14.1271 23.3554L21.159 13.0024C21.9979 11.7648 22.4412 10.3448 22.4412 8.89575C22.4412 4.47594 18.3633 0.880127 13.351 0.880127ZM19.8589 12.3166L13.4657 21.729L6.90534 12.4069C6.16636 11.3545 5.76568 10.1404 5.76568 8.89575C5.76568 5.21257 9.17401 2.20716 13.351 2.20716C17.5279 2.20716 20.9312 5.21257 20.9312 8.89575C20.9312 10.1035 20.557 11.2865 19.8589 12.3166Z" fill="#FFDA44"/>
<path d="M13.3513 4.88794C10.8451 4.88794 8.80615 6.68584 8.80615 8.89575C8.80615 11.0915 10.8119 12.9036 13.3513 12.9036C15.9219 12.9036 17.8964 11.0674 17.8964 8.89575C17.8964 6.68584 15.8574 4.88794 13.3513 4.88794ZM13.3513 11.5765C11.6717 11.5765 10.3111 10.3727 10.3111 8.89575C10.3111 7.42248 11.6805 6.21497 13.3513 6.21497C15.0221 6.21497 16.3864 7.42248 16.3864 8.89575C16.3864 10.3512 15.0574 11.5765 13.3513 11.5765Z" fill="#FFDA44"/>
</g>
<defs>
<clipPath id="clip0">
<rect width="25.8567" height="22.8" fill="white" transform="translate(0.422852 0.880127)"/>
</clipPath>
</defs>
</svg>
