<svg width="50" height="50" viewBox="0 0 50 50" fill="none" xmlns="http://www.w3.org/2000/svg">
<path d="M42.8185 3.92764V0.852246C42.8185 0.381543 42.4369 0 41.9662 0C41.4955 0 41.114 0.381641 41.114 0.852246V3.92754C41.114 11.053 35.317 16.8499 28.1916 16.8499H21.1382C19.976 16.8499 16.4397 16.8499 16.4397 10.0908V9.63965C16.4647 8.24893 16.4568 6.86523 16.448 5.50811C16.4444 4.97803 16.4411 4.43701 16.4397 3.89561V2.80811C16.4397 2.19971 16.9347 1.70459 17.5432 1.70459H37.5632C38.0339 1.70459 38.4154 1.32295 38.4154 0.852344C38.4154 0.381738 38.0338 0 37.5631 0H17.5431C16.2755 0 15.2017 0.844629 14.854 2.00049L14.7945 2.00078C14.6441 2.00215 14.5117 2.0332 14.3982 2.08545C11.6773 2.48867 9.19454 4.27373 7.99073 6.78496C7.91944 6.92852 7.69435 7.49131 7.65333 7.57334C7.64278 7.59443 7.63312 7.61592 7.62433 7.63789C7.33849 8.35225 7.33605 9.0374 7.33605 9.64316C7.31964 10.0795 7.29689 10.5159 7.27267 10.9774C7.13116 13.6755 6.97101 16.7335 8.33194 19.3286C8.5505 19.7454 9.06573 19.9062 9.48253 19.6876C9.89933 19.4689 10.0602 18.9538 9.84151 18.537C8.69767 16.3559 8.83858 13.667 8.97491 11.0667C8.99864 10.6137 9.02325 10.1452 9.04005 9.69072C9.04034 9.68018 9.04063 9.66973 9.04063 9.65918C9.04063 9.14873 9.04063 8.70645 9.1964 8.29805C9.26163 8.16279 9.47784 7.62227 9.51876 7.54033C9.52101 7.53594 9.52315 7.53135 9.5254 7.52695C10.4996 5.48994 12.5258 4.05078 14.7343 3.75869C14.7344 3.81055 14.7348 3.86211 14.7349 3.91396V9.65137C14.718 10.5638 14.6867 11.4765 14.6296 12.382C14.493 12.4484 13.6669 13.2023 13.6083 13.2609C12.3741 14.495 11.5835 16.1157 11.3217 17.9477C11.3196 17.9621 11.318 17.9766 11.3167 17.9909C11.2446 18.7834 11.2588 19.5369 11.2804 20.2669H9.95948C8.89923 20.2669 8.03683 21.1294 8.03683 22.1896V28.6242C8.03683 29.6845 8.89933 30.5469 9.95948 30.5469H11.2281L10.5989 33.0094C9.40196 37.6939 10.8293 42.6796 14.3238 46.021C17.0074 48.5869 20.5299 50 24.2428 50C24.313 50 24.5791 50 24.6492 50C28.3619 50 31.8846 48.5869 34.5681 46.0211C38.0626 42.6797 39.4901 37.694 38.293 33.0095C38.2833 32.9719 38.2712 32.935 38.2565 32.8989L37.2982 30.547H38.5259C39.5861 30.547 40.4485 29.6845 40.4485 28.6243V22.1896C40.4485 21.1294 39.586 20.267 38.5259 20.267H37.1732V15.6553C37.1732 15.5946 37.1665 15.5356 37.1545 15.4784C40.5985 12.7998 42.8185 8.61826 42.8185 3.92764ZM11.3122 28.8426H9.95958C9.83927 28.8425 9.74142 28.7446 9.74142 28.6244V22.1897C9.74142 22.0694 9.83927 21.9717 9.95948 21.9717H11.3122V28.8426ZM37.1732 21.9716H38.5259C38.6462 21.9716 38.744 22.0694 38.744 22.1896V28.6243C38.744 28.7446 38.6461 28.8424 38.5259 28.8424H37.1732V21.9716ZM13.0125 18.1673C13.2192 16.7492 13.8158 15.4982 14.7407 14.5408C14.9644 14.3947 15.1141 14.2129 15.2287 14.0735C15.2331 14.0682 15.2371 14.0636 15.2414 14.0582C15.4512 14.7601 15.7252 15.3839 16.0641 15.9251C17.1563 17.6698 18.8635 18.5544 21.1383 18.5544H28.1917C30.8391 18.5544 33.3244 17.8475 35.4689 16.6123V21.1192H35.4688V29.6947V29.8621L33.1584 30.929C32.6016 31.1861 32.0259 31.4219 31.4473 31.6296C30.7561 31.8777 30.0443 32.0918 29.3264 32.2674C27.9433 31.1994 26.1563 30.6158 24.2429 30.6158C22.3455 30.6158 20.5692 31.1914 19.1899 32.2447C17.8556 31.9116 16.5536 31.4482 15.314 30.8649L13.0172 29.7842V29.6947V21.7496V21.1192C13.0172 21.0767 13.013 21.0351 13.0069 20.994C13.0024 20.8071 12.997 20.6228 12.9914 20.4418C12.9674 19.6651 12.9448 18.9312 13.0125 18.1673ZM33.3901 44.7891C31.0253 47.0502 27.9211 48.2954 24.6492 48.2954C24.579 48.2954 24.3129 48.2954 24.2428 48.2954C20.971 48.2954 17.8668 47.0502 15.502 44.7891C12.4516 41.8725 11.2059 37.5205 12.2506 33.4314L12.7351 31.5354L14.588 32.4073C16.0618 33.1009 17.6171 33.6374 19.2103 34.0023C19.4754 34.063 19.7534 33.9936 19.9589 33.8155C21.0546 32.8654 22.616 32.3205 24.2428 32.3205C25.8823 32.3205 27.4519 32.8722 28.5489 33.8343C28.706 33.9719 28.9063 34.0458 29.1109 34.0458C29.1729 34.0458 29.2355 34.039 29.2973 34.0251C30.2197 33.8183 31.1368 33.5521 32.0231 33.2341C32.6485 33.0096 33.271 32.7548 33.8731 32.4767L35.8684 31.5553L36.6557 33.4872C37.675 37.56 36.4266 41.8856 33.3901 44.7891Z" fill="#F6E200"/>
<path d="M26.7735 19.63C24.9081 19.63 23.3904 21.1476 23.3904 23.0131V28.0539C23.3904 28.5246 23.772 28.9062 24.2426 28.9062C24.7132 28.9062 25.0949 28.5246 25.0949 28.0539V23.0131C25.0949 22.0875 25.8478 21.3346 26.7734 21.3346C27.2441 21.3346 27.6256 20.953 27.6256 20.4823C27.6256 20.0117 27.2442 19.63 26.7735 19.63Z" fill="#F6E200"/>
<path d="M28.8546 24.6906C29.3653 24.6906 29.7793 24.2766 29.7793 23.7659C29.7793 23.2552 29.3653 22.8412 28.8546 22.8412C28.3439 22.8412 27.9299 23.2552 27.9299 23.7659C27.9299 24.2766 28.3439 24.6906 28.8546 24.6906Z" fill="#F6E200"/>
<path d="M18.8273 24.6906C19.338 24.6906 19.752 24.2766 19.752 23.7659C19.752 23.2552 19.338 22.8412 18.8273 22.8412C18.3166 22.8412 17.9026 23.2552 17.9026 23.7659C17.9026 24.2766 18.3166 24.6906 18.8273 24.6906Z" fill="#F6E200"/>
<path d="M27.661 35.9986C27.5355 35.5448 27.0661 35.2789 26.6126 35.4041C25.9064 35.5992 25.173 35.7027 24.4328 35.7113C23.5684 35.7219 22.7107 35.6025 21.8893 35.3576C21.4381 35.2232 20.9637 35.4799 20.829 35.9308C20.6944 36.3818 20.9512 36.8566 21.4021 36.9911C22.3493 37.2736 23.3337 37.4165 24.3302 37.4165C24.371 37.4165 24.4119 37.4163 24.4528 37.4158C25.3396 37.4054 26.2189 37.2813 27.0665 37.0471C27.5203 36.9217 27.7865 36.4523 27.661 35.9986Z" fill="#F6E200"/>
</svg>
