<svg width="43" height="50" viewBox="0 0 43 50" fill="none" xmlns="http://www.w3.org/2000/svg">
<path d="M11.634 5.29394L11.3082 3.63328C11.1358 2.74935 10.6158 1.97186 9.86541 1.47476C9.13446 0.986448 8.23871 0.811722 7.37767 0.988737L6.89126 1.09212C6.04281 0.2967 4.89259 -0.094335 3.73513 0.0193513C2.57766 0.133038 1.52549 0.740001 0.848334 1.68535C0.144471 2.64749 -0.1386 3.85378 0.0639754 5.02842L0.721677 8.8617V8.87849C0.721677 8.88421 0.726637 8.88841 0.7274 8.89337L3.43069 24.6279C3.36889 24.7415 3.33532 24.8686 3.33265 24.9979V28.3318C3.33532 30.6319 5.19932 32.4959 7.49936 32.4985H16.6668V37.4988H12.5C12.0396 37.4988 11.6665 37.8719 11.6665 38.3324C11.6665 38.7925 12.0396 39.1656 12.5 39.1656H16.6668V44.9995H11.6665C9.36641 45.0021 7.50242 46.8661 7.49936 49.1666C7.49936 49.6266 7.87247 49.9997 8.33294 49.9997H30.0012C30.4613 49.9997 30.8344 49.6266 30.8344 49.1666C30.8318 46.8661 28.9678 45.0021 26.6677 44.9995H21.667V39.1656H25.8341C26.2946 39.1656 26.6677 38.7925 26.6677 38.3324C26.6677 37.8719 26.2946 37.4988 25.8341 37.4988H21.667V32.4985H30.2336L32.3112 38.7314C32.5775 39.5288 33.3954 40.0034 34.2198 39.8382L41.8353 38.3156C42.2725 38.2126 42.5491 37.7815 42.461 37.3413C42.3728 36.9006 41.9517 36.6096 41.5087 36.6824L33.8956 38.2042L31.9354 32.3318C33.9482 31.7859 35.2449 29.8326 34.966 27.7657C34.6876 25.6987 32.9201 24.1582 30.8344 24.1647H28.1517L29.0494 18.3309H29.1677C30.5487 18.3309 31.668 17.2115 31.668 15.8309C31.668 14.4499 30.5487 13.3306 29.1677 13.3306H15.8336C14.4525 13.3306 13.3332 14.4499 13.3332 15.8309C13.3332 17.2115 14.4525 18.3309 15.8336 18.3309H15.9518L16.8495 24.1647H12.349L9.36145 9.15012C10.9889 8.62975 11.9671 6.97024 11.634 5.29394ZM2.50403 9.38855L7.52111 8.44358L7.5646 8.66256V8.68851C7.5646 8.6969 7.57376 8.70682 7.57528 8.71788L9.2039 16.8968L3.95907 17.8601L2.50403 9.38855ZM2.1893 2.67458C2.58224 2.13018 3.18234 1.77157 3.84843 1.68306C5.15926 1.54916 6.35182 2.44911 6.58263 3.74658L7.19264 6.81077L2.22173 7.74697L1.70556 4.74649C1.57967 4.01897 1.75401 3.27124 2.1893 2.67458ZM4.99941 28.3318V25.8315H12.5V30.8318H7.49936C6.11872 30.8318 4.99941 29.7125 4.99941 28.3318ZM29.0254 48.333H9.30881C9.66322 47.335 10.6074 46.6677 11.6665 46.6662H26.6677C27.7268 46.6677 28.6706 47.335 29.0254 48.333ZM20.0003 44.9995H18.3335V39.1656H20.0003V44.9995ZM20.0003 37.4988H18.3335V32.4985H20.0003V37.4988ZM30.8344 25.8315C32.2155 25.8315 33.3348 26.9508 33.3348 28.3318C33.3348 29.7125 32.2155 30.8318 30.8344 30.8318H24.1674V25.8315H26.2092L25.8441 28.2048C25.7872 28.5046 25.8986 28.8114 26.1348 29.0048C26.3705 29.1982 26.6933 29.2474 26.976 29.1326C27.2587 29.0181 27.4563 28.758 27.491 28.455L27.895 25.8315H30.8344ZM15 15.8309C15 15.3704 15.3731 14.9973 15.8336 14.9973H29.1677C29.6281 14.9973 30.0012 15.3704 30.0012 15.8309C30.0012 16.291 29.6281 16.6641 29.1677 16.6641H15.8336C15.3731 16.6641 15 16.291 15 15.8309ZM17.6377 18.3309H27.3636L26.4659 24.1647H18.5353L17.6377 18.3309ZM17.5102 28.4585C17.545 28.7614 17.7422 29.0212 18.0253 29.136C18.308 29.2505 18.6307 29.2016 18.8665 29.0082C19.1026 28.8148 19.214 28.5081 19.1572 28.2082L18.7921 25.8315H22.5006V30.8318H14.1668V25.8315H17.1059L17.5102 28.4585ZM5.04252 24.1647L4.24176 19.5017L9.52969 18.5319L10.6505 24.1647H5.04252ZM9.03527 7.51082L8.2204 3.41811C8.16508 3.13619 8.08115 2.86075 7.97051 2.59561C8.31615 2.57844 8.65835 2.6719 8.94715 2.86304C9.32712 3.11482 9.59035 3.50891 9.67733 3.95641L9.9997 5.61821C10.1576 6.39647 9.75783 7.18121 9.03527 7.51082Z" fill="#F6E200"/>
</svg>
