<svg width="50" height="24" viewBox="0 0 50 24" fill="none" xmlns="http://www.w3.org/2000/svg">
<path d="M48.3016 0.85159C48.2054 0.552175 47.949 0.332155 47.6383 0.282643C44.5539 -0.209839 39.8258 -0.300562 34.817 2.06048C32.8004 3.01107 30.9053 4.28187 29.1786 5.83881H20.8215C19.0949 4.28187 17.1997 3.01107 15.1831 2.06048C10.1743 -0.300366 5.44633 -0.209351 2.36176 0.282643C2.05101 0.332155 1.79466 0.552175 1.69847 0.85159C0.587142 4.30961 0.015851 7.92612 0.000323614 11.601C-0.0155944 15.379 0.555794 19.0974 1.69847 22.6531C1.79418 22.9512 2.04857 23.1704 2.35736 23.2213C3.40717 23.3946 4.64438 23.5215 6.01665 23.5215C8.72037 23.5215 11.9469 23.0284 15.29 21.4254C17.2708 20.4756 19.1309 19.2112 20.8245 17.6659H29.5014C29.9625 17.6659 30.3363 17.2922 30.3363 16.831V14.4534C31.3644 14.7536 32.4123 14.987 33.465 15.1483C34.2657 15.2709 35.0815 15.3539 35.8896 15.3953C35.904 15.3961 35.9185 15.3964 35.933 15.3964C36.3745 15.3964 36.7434 15.0502 36.7661 14.6042C36.7898 14.1436 36.4355 13.7512 35.9749 13.7276C35.2226 13.6891 34.463 13.6117 33.7178 13.4977C32.5774 13.3229 31.4428 13.0575 30.3363 12.7081V10.2242C31.4097 9.8982 32.651 9.55972 33.6968 9.42632C35.0576 9.25288 36.4421 9.22124 37.8118 9.33169C38.2698 9.36851 38.6741 9.02632 38.7112 8.56665C38.7483 8.10698 38.4058 7.70434 37.9461 7.66723C36.4616 7.54721 34.9608 7.58188 33.4858 7.76987C32.4851 7.89731 31.3582 8.18364 30.3362 8.48178V7.04213C31.9306 5.61117 33.6759 4.44418 35.5288 3.57064C39.8857 1.51692 44.0175 1.47376 46.8665 1.85677C47.8238 5.0016 48.3159 8.27915 48.3299 11.6079C48.3443 15.0363 47.8519 18.4121 46.8656 21.6509C41.4943 22.2717 37.5088 20.9015 33.1248 18.7993C32.7091 18.5998 32.2105 18.7754 32.0111 19.1912C31.8116 19.607 31.9871 20.1057 32.4029 20.3051C35.7463 21.9083 38.0062 23.2737 43.9834 23.5216C45.3542 23.5785 46.5932 23.3945 47.6427 23.2214C47.9514 23.1705 48.2059 22.9511 48.3015 22.6532C49.4442 19.0976 50.0156 15.3792 49.9997 11.6011C49.9843 7.92622 49.4131 4.3097 48.3016 0.85159ZM19.6637 8.48188C18.6418 8.18374 17.515 7.89741 16.5141 7.76997C15.0391 7.58208 13.5384 7.54741 12.0538 7.66733C11.5941 7.70444 11.2516 8.10708 11.2887 8.56675C11.3259 9.02651 11.7285 9.36958 12.1881 9.33179C13.558 9.22144 14.9424 9.25317 16.3031 9.42642C17.3491 9.55972 18.5903 9.89819 19.6636 10.2243V12.7082C18.5571 13.0574 17.4225 13.323 16.2822 13.4976C15.5368 13.6117 14.7773 13.6892 14.0249 13.7276C13.5643 13.7512 13.2101 14.1436 13.2337 14.6042C13.2565 15.0502 13.6253 15.3964 14.0668 15.3964C14.0811 15.3964 14.0956 15.3961 14.1102 15.3953C14.9184 15.3539 15.7342 15.2709 16.5349 15.1481C17.5875 14.9869 18.6355 14.7536 19.6636 14.4534V16.4655C18.1002 17.8861 16.3875 19.0472 14.5677 19.9198C10.1838 22.0221 6.01167 22.0531 3.13412 21.6509C2.14789 18.4119 1.65541 15.0362 1.66986 11.6079C1.68382 8.27925 2.17582 5.0016 3.13314 1.85677C5.98188 1.47405 10.1139 1.51702 14.4708 3.57074C16.3236 4.44418 18.069 5.61117 19.6634 7.04223V8.48188H19.6637ZM28.6664 9.6061C28.6664 9.60903 28.6664 9.61196 28.6664 9.61489V15.9962H21.3335V9.61489C21.3335 9.61196 21.3335 9.60903 21.3335 9.6061V7.50854H28.6664V9.6061Z" fill="#F6E200"/>
</svg>
