<svg width="44" height="50" viewBox="0 0 44 50" fill="none" xmlns="http://www.w3.org/2000/svg">
<path d="M12.4392 5.29418L12.1134 3.63352C11.941 2.74959 11.421 1.9721 10.6706 1.47501C9.93964 0.986692 9.04388 0.811966 8.18284 0.988981L7.69643 1.09237C6.84798 0.296944 5.69777 -0.0940909 4.5403 0.0195955C3.38284 0.133282 2.33067 0.740245 1.65351 1.6856C0.949647 2.64773 0.666576 3.85403 0.869151 5.02866L1.52685 8.86195V8.87873C1.52685 8.88446 1.53181 8.88865 1.53258 8.89361L4.23587 24.6281C4.17407 24.7418 4.14049 24.8688 4.13782 24.9982V28.3321C4.14049 30.6321 6.00449 32.4961 8.30454 32.4988H17.4719V37.4991H13.3052C12.8447 37.4991 12.4716 37.8722 12.4716 38.3326C12.4716 38.7927 12.8447 39.1658 13.3052 39.1658H17.4719V44.9997H12.4716C10.1716 45.0024 8.30759 46.8664 8.30454 49.1668C8.30454 49.6269 8.67764 50 9.13811 50H30.8064C31.2665 50 31.6396 49.6269 31.6396 49.1668C31.6369 46.8664 29.7729 45.0024 27.4729 44.9997H22.4722V39.1658H26.6393C27.0998 39.1658 27.4729 38.7927 27.4729 38.3326C27.4729 37.8722 27.0998 37.4991 26.6393 37.4991H22.4722V32.4988H31.0387L33.1164 38.7317C33.3827 39.529 34.2006 40.0036 35.025 39.8384L42.6405 38.3159C43.0777 38.2129 43.3543 37.7818 43.2661 37.3415C43.178 36.9009 42.7568 36.6098 42.3139 36.6827L34.7007 38.2045L32.7406 32.3321C34.7534 31.7861 36.0501 29.8329 35.7712 27.7659C35.4927 25.699 33.7253 24.1585 31.6396 24.165H28.9569L29.8546 18.3311H29.9728C31.3539 18.3311 32.4732 17.2118 32.4732 15.8311C32.4732 14.4501 31.3539 13.3308 29.9728 13.3308H16.6387C15.2577 13.3308 14.1384 14.4501 14.1384 15.8311C14.1384 17.2118 15.2577 18.3311 16.6387 18.3311H16.757L17.6547 24.165H13.1541L10.1666 9.15036C11.7941 8.63 12.7723 6.97048 12.4392 5.29418ZM3.30921 9.3888L8.32629 8.44383L8.36978 8.66281V8.68875C8.36978 8.69714 8.37893 8.70706 8.38046 8.71812L10.0091 16.8971L4.76424 17.8603L3.30921 9.3888ZM2.99447 2.67482C3.38742 2.13042 3.98751 1.77181 4.65361 1.68331C5.96443 1.5494 7.157 2.44935 7.3878 3.74683L7.99782 6.81102L3.0269 7.74721L2.51074 4.74673C2.38484 4.01922 2.55919 3.27148 2.99447 2.67482ZM5.80459 28.3321V25.8317H13.3052V30.832H8.30454C6.9239 30.832 5.80459 29.7127 5.80459 28.3321ZM29.8305 48.3332H10.114C10.4684 47.3352 11.4126 46.668 12.4716 46.6665H27.4729C28.5319 46.668 29.4758 47.3352 29.8305 48.3332ZM20.8055 44.9997H19.1387V39.1658H20.8055V44.9997ZM20.8055 37.4991H19.1387V32.4988H20.8055V37.4991ZM31.6396 25.8317C33.0206 25.8317 34.1399 26.951 34.1399 28.3321C34.1399 29.7127 33.0206 30.832 31.6396 30.832H24.9726V25.8317H27.0143L26.6492 28.205C26.5924 28.5049 26.7038 28.8116 26.9399 29.005C27.1757 29.1984 27.4984 29.2477 27.7811 29.1328C28.0638 29.0184 28.2614 28.7582 28.2962 28.4553L28.7002 25.8317H31.6396ZM15.8052 15.8311C15.8052 15.3707 16.1783 14.9976 16.6387 14.9976H29.9728C30.4333 14.9976 30.8064 15.3707 30.8064 15.8311C30.8064 16.2912 30.4333 16.6643 29.9728 16.6643H16.6387C16.1783 16.6643 15.8052 16.2912 15.8052 15.8311ZM18.4428 18.3311H28.1687L27.2711 24.165H19.3405L18.4428 18.3311ZM18.3154 28.4587C18.3501 28.7616 18.5474 29.0214 18.8304 29.1363C19.1131 29.2507 19.4359 29.2019 19.6716 29.0085C19.9078 28.815 20.0192 28.5083 19.9623 28.2085L19.5973 25.8317H23.3058V30.832H14.972V25.8317H17.911L18.3154 28.4587ZM5.8477 24.165L5.04693 19.5019L10.3349 18.5322L11.4557 24.165H5.8477ZM9.84045 7.51107L9.02557 3.41836C8.97025 3.13643 8.88632 2.86099 8.77569 2.59585C9.12133 2.57868 9.46353 2.67215 9.75232 2.86328C10.1323 3.11507 10.3955 3.50916 10.4825 3.95665L10.8049 5.61846C10.9628 6.39671 10.563 7.18145 9.84045 7.51107Z" fill="white"/>
</svg>
