<svg width="38" height="16" viewBox="0 0 38 16" fill="none" xmlns="http://www.w3.org/2000/svg">
<path d="M37.2241 0.599623C37.0573 0.166575 36.6362 -0.0722737 36.2014 0.0195188C35.7639 0.111233 35.4611 0.503303 35.4651 0.972178L35.4651 0.983653C35.4651 3.37994 33.6114 5.32943 31.3328 5.32943C29.9476 5.32943 28.6611 4.60462 27.8916 3.39047C27.8887 3.38595 27.8858 3.38142 27.8826 3.37697L27.7131 3.12275C27.7092 3.11681 27.7051 3.11088 27.701 3.10518C26.5461 1.4843 24.7071 0.557005 22.7814 0.628347C21.3758 0.679473 20.0325 1.27199 18.9999 2.27819C17.9674 1.27199 16.624 0.679473 15.2185 0.628347C13.2944 0.556927 11.4537 1.4843 10.2989 3.10518C10.2947 3.11104 10.2907 3.11681 10.2867 3.12275L10.1172 3.37697C10.1142 3.3815 10.1113 3.38603 10.1083 3.39047C9.3388 4.60462 8.05236 5.32943 6.66707 5.32943C4.38855 5.32943 2.53472 3.37994 2.53472 0.983653V0.972725C2.5388 0.503381 2.23599 0.111312 1.79847 0.0194414C1.3631 -0.072195 0.942578 0.166574 0.775734 0.599388C0.261102 1.93537 0 3.34965 0 4.80311C0 7.80557 1.13236 10.6324 3.18851 12.7629C5.24571 14.8944 7.95172 16.0414 10.8082 15.9987C14.0246 15.9482 17.0227 14.375 18.9999 11.7435C20.9772 14.375 23.9753 15.9482 27.1917 15.9987C27.2454 15.9995 27.2988 16 27.3525 16C30.1497 16 32.793 14.8543 34.8114 12.7629C36.8676 10.6324 38 7.80549 38 4.80311C38 3.34965 37.739 1.93538 37.2241 0.599623ZM33.8857 11.7747C32.0822 13.6432 29.7098 14.648 27.2113 14.6116C24.1175 14.5632 21.2538 12.9057 19.5513 10.1781C19.4294 9.98291 19.2221 9.86512 18.9999 9.86512C18.7777 9.86512 18.5705 9.98275 18.4486 10.1781C16.746 12.9056 13.8823 14.5631 10.7885 14.6116C8.28719 14.6478 5.91776 13.6433 4.11417 11.7747C2.31177 9.90704 1.31909 7.43106 1.31909 4.80311C1.31909 4.13512 1.38195 3.4768 1.50664 2.83285C2.23977 5.08949 4.27626 6.7167 6.66714 6.7167C8.49174 6.7167 10.1862 5.76373 11.2015 4.16728L11.3607 3.92858C12.2573 2.6758 13.682 1.95996 15.1731 2.01468C16.4487 2.06112 17.6598 2.68564 18.496 3.72806C18.6213 3.88425 18.8058 3.97448 19.0001 3.97448C19.1945 3.97448 19.379 3.88433 19.5043 3.72806C20.3405 2.68564 21.5516 2.06112 22.8272 2.01468C24.3204 1.9616 25.7428 2.67588 26.6396 3.92858L26.7988 4.16728C27.814 5.76389 29.5085 6.7167 31.3331 6.7167C33.724 6.7167 35.7604 5.08949 36.4936 2.83285C36.6183 3.47665 36.6811 4.13504 36.6811 4.80311C36.6809 7.43106 35.6882 9.90704 33.8857 11.7747Z" fill="#F6E200"/>
</svg>
